<?xml version="1.0" encoding="utf-8"?>
<!-- Generator: Adobe Illustrator 22.0.1, SVG Export Plug-In . SVG Version: 6.00 Build 0)  -->
<svg version="1.1" id="Layer_1" xmlns="http://www.w3.org/2000/svg" xmlns:xlink="http://www.w3.org/1999/xlink" x="0px" y="0px"
	 viewBox="0 0 600 400" style="enable-background:new 0 0 600 400;" xml:space="preserve">
<style type="text/css">
	.st0{fill:#00323F;}
</style>
<g>
	<path class="st0" d="M405.9,163.2c-25.5-16.2-58.7-4.8-68.4,23.6c-5.6,16.5-6,33.5-4.7,50.6c0.5,6.6,2.7,12.7,7.2,17.8
		c5.2,5.8,11.8,7.6,19.2,6c7.1-1.5,10.5-6.8,12.2-13.3c1.2-4.7,1.3-9.6,1.2-14.4c-0.1-2.3-0.2-4.7-0.4-7.3c1.8,0.6,3.2,1,4.7,1.5
		c6.3,2.1,12.8,2.5,19.3,1.1c14.7-3.2,21.6-13.2,24-27.4C423,184.9,418,170.9,405.9,163.2z M384.3,196.9c-0.2,3.5-2.5,4.8-5.7,4.7
		c-3.4-0.2-4.9-2.2-4.7-5.6c0.1-2.9,2.7-5.2,5.5-5.1C382.4,191,384.6,193.6,384.3,196.9z"/>
	<path class="st0" d="M159.5,185.7c-0.6-0.2-1.2-0.7-1.7-1c8.4-6.9,11-10.8,11.5-17.2c1-11.6-4.8-21-16.3-25.7
		c-9.1-3.7-18.7-4.2-28.2-2.9c-15.6,2.1-25.3,10.9-29.5,26.1c-3.5,12.7-4.4,25.7-2.6,38.7c2.5,17.3,12,27.7,28.5,31.1
		c9.5,1.9,19.1,1.7,28.4-0.9c5.6-1.5,10.7-3.9,15.2-7.6C176.7,216.2,177.2,193,159.5,185.7z M133,165.9c3.2,0.1,5,1.9,5.3,4.7
		c0.1,3.5-2.2,6-5.3,6.2c-3.2,0.1-5.4-2.1-5.5-5.4C127.5,168.2,129.9,165.7,133,165.9z M134.1,209.2c-3.6,0-5.5-1.6-5.7-4.9
		c-0.2-2.9,2.3-5.7,5.2-5.7c2.8-0.1,5.5,2.5,5.4,5.6C139,207.4,137.1,209,134.1,209.2z"/>
	<path class="st0" d="M466.1,170.6c2.4-3.4,4.5-6.6,6.9-9.7c3-3.9,6.4-7.3,10.9-9.5c11.8-5.8,24.1,1.7,24.3,14.9
		c0.2,6.8-1.4,13.2-3.9,19.4c-7.2,18-16.5,34.8-27.7,50.6c-3.3,4.7-7.5,8.5-12.6,11.2c-10.4,5.7-27.7-0.7-26-17.1
		c0.8-7.7,3.6-14.5,7.2-21.2c1.4-2.6,1.2-4.1-1-6C436.8,197,430,190,425,181.6c-3.7-6.3-5.7-13-3.3-20.2
		c3.7-11.8,16.3-16.8,27.2-10.9c4.2,2.3,7.5,5.7,10.2,9.7C461.4,163.6,463.7,167.1,466.1,170.6z"/>
	<path class="st0" d="M256,189.2c0,4.8-0.2,9-1,13.1c-2.5,13.2-10,22.5-22.7,26.9c-11.2,3.8-22.6,4.1-34,0.9
		c-7.5-2.1-13.1-6.5-16.8-13.3c-6.5-12-8.4-24.9-7.2-38.3c0.8-8.7,7.8-14.5,16.7-15.2c8.5-0.7,15.1,4.1,17.5,12.8
		c0.9,3.3,1.4,6.7,2.2,10.2c0.4,1.7,1.1,3.4,1.8,5.1c0.7,1.4,1.8,2.6,3.6,2.2c1.9-0.3,2.7-1.8,2.8-3.7c0.2-4.5-1-8.8-1.5-13.2
		c-1.7-14.2,7.7-22.9,21.8-20.2c6.4,1.2,10.5,5.4,12.8,11.2C255.1,175,256.2,182.3,256,189.2z"/>
	<path class="st0" d="M303.7,157.4c12-9,23.4-9.7,31-2.1c5.9,5.9,6.4,16.9,1.1,24.2c-6.1,8.3-14.9,8.8-28.9,1.3
		c-0.8,5.3-0.5,10.7-1.7,15.9c-0.7,3.4-1.7,6.7-3.2,9.8c-4.6,9.1-12.6,13.1-22.7,11.5c-9.5-1.5-15.7-7.7-17.3-17.6
		c-2.3-14.2-0.8-28.2,2.7-42c2.2-8.5,9.2-13.8,17.9-14.3C293.3,143.5,299.2,147,303.7,157.4z"/>
</g>
</svg>
