<?xml version="1.0" encoding="utf-8"?>
<!-- Generator: Adobe Illustrator 22.0.1, SVG Export Plug-In . SVG Version: 6.00 Build 0)  -->
<svg version="1.1" id="Layer_1" xmlns="http://www.w3.org/2000/svg" xmlns:xlink="http://www.w3.org/1999/xlink" x="0px" y="0px"
	 viewBox="0 0 600 400" style="enable-background:new 0 0 600 400;" xml:space="preserve">
<style type="text/css">
	.st0{fill:#00323F;}
</style>
<g>
	<g>
		<path class="st0" d="M208.4,214.6c-3-3.5-4.5-8.4-4.5-14.6c0-6.2,1.5-11.1,4.6-14.6c3.1-3.5,7.4-5.3,13.1-5.3
			c4.8,0,8.6,1.3,11.4,3.8l-0.5,6.7h-1.3c-0.4-1.3-0.8-3.3-1-6.2c-0.9-0.7-2-1.3-3.2-1.7c-1.3-0.4-2.6-0.6-4-0.6
			c-4.6,0-8.1,1.6-10.4,4.9c-2.3,3.2-3.5,7.6-3.5,13c0,5.5,1.1,9.8,3.2,13c2.2,3.2,5.5,4.8,10.2,4.8c1.4,0,3-0.3,4.8-0.8
			c1.8-0.5,3.4-1.3,4.9-2.2l0.7,1.5c-1.3,1.1-2.9,2-4.9,2.6c-2,0.6-4.1,0.9-6.4,0.9C215.8,219.9,211.4,218.1,208.4,214.6z"/>
		<path class="st0" d="M274.3,205.6H253c0,3.6,1,6.6,2.8,8.9c1.8,2.3,4.5,3.5,7.9,3.5c1.5,0,3-0.2,4.6-0.7c1.6-0.5,3-1.2,4.2-2
			l0.5,1.4c-1.1,0.9-2.5,1.6-4.4,2.2c-1.9,0.6-3.9,0.9-6.1,0.9c-2.9,0-5.5-0.6-7.6-1.8c-2.2-1.2-3.9-2.9-5.1-5
			c-1.2-2.2-1.8-4.6-1.8-7.4c0-4.5,1.2-8,3.7-10.5c2.5-2.5,5.9-3.8,10.2-3.8c2.8,0,5.1,0.6,6.9,1.8c1.8,1.2,3.2,2.8,4.1,4.7
			c0.9,2,1.3,4.2,1.3,6.5V205.6z M269.9,203.7c0-1.7-0.3-3.3-0.8-4.9c-0.5-1.6-1.4-2.9-2.5-3.9c-1.2-1-2.7-1.6-4.5-1.6
			c-2.8,0-4.9,1-6.4,2.9c-1.5,2-2.4,4.4-2.6,7.5H269.9z"/>
		<path class="st0" d="M322.4,218.7v0.6h-13.6v-0.6c1.6-0.5,3-0.9,4.2-1v-18.1c0-2.2-0.5-3.8-1.6-4.8c-1.1-1-2.5-1.5-4.3-1.5
			c-1.5,0-3,0.4-4.6,1.1c-1.6,0.8-3.1,1.8-4.4,3.2v20c1.5,0.2,2.9,0.6,4.4,1v0.6h-13.8v-0.6c1.5-0.5,2.9-0.8,4.4-1v-24
			c-1.5-0.3-2.8-0.6-3.9-1v-0.4l8.8-0.9v4.2c1.3-1.3,2.9-2.3,4.7-3.1c1.9-0.8,3.9-1.2,6-1.2c2.7,0,4.9,0.7,6.6,2.1
			c1.7,1.4,2.5,3.3,2.5,5.7v18.6C319.7,217.9,321.2,218.3,322.4,218.7z"/>
		<path class="st0" d="M354.2,219.1c-1.7,0.6-3.5,0.8-5.6,0.8c-2.6,0-4.7-0.7-6.1-2c-1.5-1.3-2.2-3.4-2.2-6.1v-17.9h-4.8v-2h4.8v-3
			c1.4-0.6,2.3-2.1,2.6-4.4h2.4v7.5h8.3v2h-8.3v17.9c0,2.2,0.4,3.8,1.3,4.7c0.9,0.9,2.1,1.4,3.7,1.4c1.1,0,2.3-0.2,3.6-0.7
			L354.2,219.1z"/>
		<path class="st0" d="M394.5,205.6h-21.3c0,3.6,1,6.6,2.8,8.9c1.8,2.3,4.5,3.5,7.9,3.5c1.5,0,3-0.2,4.6-0.7c1.6-0.5,3-1.2,4.2-2
			l0.5,1.4c-1.1,0.9-2.5,1.6-4.4,2.2c-1.9,0.6-3.9,0.9-6.1,0.9c-2.9,0-5.5-0.6-7.6-1.8c-2.2-1.2-3.9-2.9-5.1-5
			c-1.2-2.2-1.8-4.6-1.8-7.4c0-4.5,1.2-8,3.7-10.5c2.5-2.5,5.9-3.8,10.2-3.8c2.8,0,5.1,0.6,6.9,1.8c1.8,1.2,3.2,2.8,4.1,4.7
			c0.9,2,1.3,4.2,1.3,6.5V205.6z M390.1,203.7c0-1.7-0.3-3.3-0.8-4.9c-0.5-1.6-1.4-2.9-2.5-3.9c-1.2-1-2.7-1.6-4.5-1.6
			c-2.8,0-4.9,1-6.4,2.9c-1.5,2-2.4,4.4-2.6,7.5H390.1z"/>
		<path class="st0" d="M408.4,218.7c1.3-0.5,2.7-0.8,4.4-1v-24c-1.6-0.3-2.9-0.6-3.8-1v-0.4l8.2-0.9l0.4,4.7h0.2
			c0.6-1.3,1.5-2.5,2.8-3.4c1.3-0.9,2.6-1.4,4.1-1.4c1.8,0,3.3,0.4,4.6,1.2l-0.9,2.6c-0.9-0.7-2-1-3.1-1c-1.5,0-2.9,0.5-4.2,1.5
			c-1.3,1-2.4,2.3-3.3,3.8v18.2c1.6,0.3,3.1,0.6,4.4,1v0.6h-13.8V218.7z"/>
		<path class="st0" d="M445.3,217.8c-1.5-1.4-2.3-3.3-2.3-5.9c0-2.8,1-4.9,3-6.2c2-1.3,4.6-1.9,7.7-1.9h8.2v-4.4
			c0-2.1-0.6-3.6-1.9-4.6c-1.3-1-3-1.5-5.3-1.5c-1.4,0-2.9,0.2-4.4,0.6c-1.5,0.4-2.9,1-4.2,1.6l-0.4-1.7c1.5-0.8,3.1-1.4,5-1.9
			c1.9-0.5,3.8-0.7,5.7-0.7c3.3,0,5.9,0.7,7.7,2.1c1.9,1.4,2.8,3.3,2.8,5.7v18.1c1.3,0.3,2.6,0.6,3.8,0.9v0.4l-8.8,0.9v-4
			c-1.5,1.6-3.1,2.8-4.8,3.5c-1.7,0.7-3.4,1-5.1,1C449.1,219.9,446.8,219.2,445.3,217.8z M458.4,216.4c1.6-0.9,2.7-2,3.5-3.3v-7.3
			h-7c-2.4,0-4.1,0.5-5.3,1.6c-1.2,1-1.8,2.5-1.8,4.4c0,2,0.5,3.5,1.6,4.5c1.1,1,2.5,1.5,4.3,1.5
			C455.3,217.8,456.8,217.4,458.4,216.4z"/>
		<path class="st0" d="M490.4,218.1c-2.2-1.2-3.8-2.8-5-5c-1.2-2.2-1.7-4.6-1.7-7.5c0-4.5,1.3-8,3.9-10.5c2.6-2.5,6.2-3.8,10.6-3.8
			c4,0,7.3,1.1,9.9,3.3l-0.4,6h-1.1c-0.2-0.6-0.4-1.4-0.6-2.5c-0.1-1.1-0.2-2.1-0.3-3c-2-1.3-4-1.9-6.2-1.9c-3.5,0-6.2,1.1-8.1,3.3
			c-1.9,2.2-2.8,5.3-2.8,9.4c0,2.1,0.4,4.1,1.1,5.9c0.8,1.8,1.9,3.3,3.5,4.4c1.6,1.1,3.6,1.7,6,1.7c1.5,0,3-0.2,4.5-0.7
			c1.5-0.5,2.8-1.2,3.9-2l0.5,1.4c-1.1,0.9-2.5,1.7-4.3,2.3s-3.8,0.9-6,0.9C495.1,219.9,492.6,219.3,490.4,218.1z"/>
	</g>
	<path class="st0" d="M173.2,150.9h-64.8c-9.2,0-16.7,7.5-16.7,16.7v64.8c0,9.2,7.5,16.7,16.7,16.7h64.8c9.2,0,16.7-7.5,16.7-16.7
		v-64.8C189.8,158.4,182.3,150.9,173.2,150.9z M115.3,190l9.9,10l-9.9,10V190z M115.3,210.8l14.1,0.1l0.1,14.1L115.3,210.8z
		 M129.4,189l-14.1,0.1l14.2-14.2L129.4,189z M130.8,225.1l10.1-9.9l10.1,9.9H130.8z M140.8,184.8l-10.1-9.9h20.1L140.8,184.8z"/>
</g>
</svg>
