<?xml version="1.0" encoding="utf-8"?>
<!-- Generator: Adobe Illustrator 22.0.1, SVG Export Plug-In . SVG Version: 6.00 Build 0)  -->
<svg version="1.1" id="Layer_1" xmlns="http://www.w3.org/2000/svg" xmlns:xlink="http://www.w3.org/1999/xlink" x="0px" y="0px"
	 viewBox="0 0 600 400" style="enable-background:new 0 0 600 400;" xml:space="preserve">
<style type="text/css">
	.st0{fill:#00323F;}
</style>
<g>
	<path class="st0" d="M268.7,288.8h3.6v10.5h1.8v-10.5h3.6v-1.6h-9V288.8z M285.9,295.9c-0.3-1.1-0.7-2-1.5-2.4c1.2-0.5,2-1.5,2-3
		c0-0.9-0.3-1.8-1-2.3c-0.8-0.7-1.9-1-3.5-1c-1.1,0-2.2,0.1-2.9,0.2l-0.1,0v11.9h1.8v-5.1l1.3,0c1.3,0.1,1.9,0.6,2.2,2.2
		c0.3,1.5,0.6,2.5,0.8,2.9l0,0.1h1.9l-0.1-0.2C286.6,298.7,286.3,297.6,285.9,295.9z M282.1,292.8h-1.4v-4c0.3-0.1,0.7-0.1,1.4-0.1
		c1.6,0,2.6,0.6,2.6,2.1C284.6,291.9,283.7,292.8,282.1,292.8z M291.6,287.3l-4.1,12.1h1.9l1.2-3.7h4l1.3,3.7h1.9l-4.1-12.1H291.6z
		 M291,294.1l1.1-3.2c0.2-0.6,0.3-1.1,0.5-1.7c0.1,0.5,0.3,1.1,0.5,1.7l1.1,3.2H291z M303.2,293.2c-0.5,1.4-0.9,2.7-1.2,3.9
		c-0.3-1.2-0.7-2.5-1.1-3.9l-1.9-5.9H297l3.9,12.1h1.9l4.3-12.1h-1.9L303.2,293.2z M310,293.8h4.6v-1.5H310v-3.4h4.8v-1.6h-6.7v12.1
		h6.9v-1.6H310V293.8z M318.6,287.3h-1.8v12.1h6.8v-1.6h-5V287.3z M338.1,287.3l-2.1,5.8c-0.5,1.3-0.8,2.5-1.1,3.5
		c-0.3-1.1-0.7-2.3-1.1-3.5l-2-5.8h-2.2l-0.8,12.1h1.7l0.3-5.2c0.1-1.4,0.2-3,0.2-4.3c0.3,1.2,0.7,2.4,1.1,3.7l1.9,5.7h1.4l2.1-5.8
		c0.5-1.3,0.9-2.6,1.3-3.7c0,1.3,0.1,2.9,0.2,4.3l0.3,5.3h1.8l-0.8-12.1H338.1z M348,287.1c-3.2,0-5.6,2.5-5.6,6.3
		c0,3.6,2.2,6.1,5.4,6.1c3.1,0,5.6-2.2,5.6-6.4C353.5,289.6,351.3,287.1,348,287.1z M347.9,298c-2.3,0-3.6-2.2-3.6-4.6
		c0-2.6,1.2-4.8,3.6-4.8c2.4,0,3.6,2.3,3.6,4.6C351.6,295.9,350.3,298,347.9,298z M362.3,295.9c-0.3-1.1-0.7-2-1.5-2.4
		c1.2-0.5,2-1.5,2-3c0-0.9-0.3-1.8-1-2.3c-0.8-0.7-1.9-1-3.5-1c-1.1,0-2.2,0.1-3,0.2l-0.1,0v11.9h1.8v-5.1h1.3
		c1.3,0.1,1.9,0.6,2.2,2.2c0.3,1.5,0.6,2.5,0.8,2.9l0,0.1h1.9l-0.1-0.2C363,298.7,362.7,297.6,362.3,295.9z M358.5,292.8h-1.4v-4
		c0.3-0.1,0.7-0.1,1.4-0.1c1.6,0,2.6,0.6,2.6,2.1C361,292,360,292.8,358.5,292.8z M366.5,293.8h4.6v-1.5h-4.6v-3.4h4.8v-1.6h-6.7
		v12.1h6.9v-1.6h-5.1V293.8z M374.1,297c-0.7,0-1.2,0.5-1.2,1.2c0,0.7,0.5,1.2,1.2,1.2h0c0.7,0,1.2-0.6,1.2-1.2
		C375.3,297.6,374.8,297,374.1,297z M384.6,292.4c-1.6-0.6-2.2-1.1-2.3-2.1c0-0.7,0.5-1.6,2.1-1.6c1,0,1.8,0.3,2.2,0.5l0.1,0.1
		l0.5-1.5l-0.1-0.1c-0.6-0.3-1.4-0.6-2.7-0.6c-2.3,0-4,1.4-4,3.3c0,1.7,1.3,2.8,3.2,3.5c1.6,0.6,2.1,1.2,2.1,2.2
		c0,1.1-0.8,1.9-2.3,1.9c-1,0-2-0.3-2.7-0.7l-0.2-0.1l-0.1,0.2l-0.4,1.4l0.1,0.1c0.7,0.4,1.9,0.8,3.1,0.8c2.8,0,4.3-1.7,4.3-3.6
		C387.7,294.2,386.6,293.1,384.6,292.4z M392.6,287.2c-1.2,0-2.2,0.1-2.9,0.2l-0.1,0v11.9h1.8v-4.7c0.3,0.1,0.7,0.1,1.1,0.1
		c1.5,0,2.9-0.4,3.7-1.3c0.6-0.6,0.9-1.5,0.9-2.6c0-1.1-0.4-2-1.1-2.6C395.3,287.5,394.2,287.2,392.6,287.2z M392.5,293.2
		c-0.4,0-0.8,0-1.1-0.1v-4.4c0.3-0.1,0.7-0.1,1.3-0.1c1.6,0,2.6,0.7,2.6,2.2C395.3,292.4,394.3,293.2,392.5,293.2z M400.8,293.8
		l4.6,0v-1.5h-4.6v-3.4l4.8,0v-1.6H399v12.1h6.9v-1.6h-5.1V293.8z M415.1,292.3c0,1.6,0,2.9,0.1,4.2c-0.5-1-1.1-2.1-1.8-3.2l-3.8-6
		h-1.9v12.1h1.7v-5.2c0-1.7,0-3-0.1-4.3c0.6,1.1,1.2,2.3,2,3.4l3.8,6h1.8v-12.1h-1.7V292.3z M422.6,287.2c-1.2,0-2.3,0.1-3.3,0.2
		l-0.1,0v11.8l0.1,0c0.8,0.1,1.7,0.1,2.8,0.1c2.3,0,4.2-0.6,5.3-1.7c1.1-1.1,1.7-2.7,1.7-4.7c0-1.9-0.6-3.4-1.7-4.3
		C426.4,287.7,424.8,287.2,422.6,287.2z M422.5,297.9c-0.5,0-1,0-1.4-0.1v-9.1c0.4-0.1,0.9-0.1,1.6-0.1c3.1,0,4.6,1.7,4.6,4.4
		c0,0,0,0,0,0C427.3,296.2,425.6,297.9,422.5,297.9z M436.6,287.3h-1.8v12.1h6.8v-1.6h-5V287.3z M444.9,293.8l4.6,0v-1.5h-4.6v-3.4
		h4.8v-1.6h-6.7v12.1h6.9v-1.6h-5.1V293.8z M455.5,292.4c-1.6-0.6-2.2-1.1-2.3-2.1c0-0.7,0.5-1.6,2.1-1.6c1,0,1.8,0.3,2.2,0.5
		l0.2,0.1l0.5-1.5l-0.1-0.1c-0.5-0.3-1.4-0.6-2.7-0.6c-2.3,0-4,1.4-4,3.3c0,1.7,1.3,2.8,3.2,3.5c1.6,0.6,2.1,1.2,2.1,2.2
		c0,1.1-0.8,1.9-2.3,1.9c-1,0-2-0.3-2.7-0.7l-0.2-0.1l-0.1,0.2l-0.4,1.4l0.1,0.1c0.7,0.4,1.9,0.8,3.1,0.8c2.8,0,4.3-1.7,4.3-3.6
		C458.6,294.2,457.5,293.1,455.5,292.4z M464.2,292.4c-1.6-0.6-2.2-1.1-2.3-2.1c0-0.7,0.5-1.6,2.1-1.6c1,0,1.8,0.3,2.2,0.5l0.1,0.1
		l0.5-1.5l-0.1-0.1c-0.5-0.3-1.4-0.6-2.7-0.6c-2.3,0-4,1.4-4,3.3c0,1.7,1.3,2.8,3.2,3.5c1.6,0.6,2.1,1.2,2.1,2.2
		c0,1.1-0.8,1.9-2.3,1.9c-1,0-2-0.3-2.7-0.7l-0.2-0.1l-0.1,0.2l-0.4,1.4l0.1,0.1c0.7,0.4,1.9,0.8,3.1,0.8c2.8,0,4.3-1.7,4.3-3.6
		C467.4,294.2,466.3,293.1,464.2,292.4z M469.7,296.8c-0.7,0-1.2,0.5-1.2,1.2c0,0.7,0.5,1.2,1.2,1.2h0c0.7,0,1.2-0.6,1.2-1.2
		C470.8,297.4,470.3,296.9,469.7,296.8z"/>
	<path class="st0" d="M125.1,240.5H112v-7.1h35v7.1h-13.3v39.2h-8.4V240.5z"/>
	<path class="st0" d="M146.5,257.1c0-4.5-0.1-7.8-0.3-10.8h7.3l0.3,6.4h0.3c1.6-4.7,5.6-7.1,9.1-7.1c0.8,0,1.3,0.1,2,0.2v8
		c-0.7-0.1-1.4-0.3-2.5-0.3c-4.1,0-6.8,2.6-7.6,6.4c-0.1,0.8-0.3,1.6-0.3,2.6v17.3h-8.4V257.1z"/>
	<path class="st0" d="M194.2,271.7c0,3,0.1,6,0.5,8h-7.6l-0.5-3.7h-0.2c-2.1,2.6-5.6,4.5-9.9,4.5c-6.7,0-10.5-4.9-10.5-10
		c0-8.4,7.5-12.7,19.8-12.6v-0.5c0-2.2-0.9-5.8-6.8-5.8c-3.3,0-6.7,1-9,2.5l-1.6-5.5c2.5-1.5,6.8-3,12.1-3
		c10.7,0,13.8,6.8,13.8,14.1V271.7z M186,263.4c-6-0.1-11.7,1.2-11.7,6.2c0,3.3,2.1,4.8,4.8,4.8c3.4,0,5.8-2.2,6.6-4.6
		c0.2-0.6,0.3-1.3,0.3-1.9V263.4z"/>
	<path class="st0" d="M369.4,127.1l2.8,4.8l1.3-1.3l-0.1-5.4l7.9-6.9l6.1,12.9l2-2l-2.3-15.9c7.9-7.7,7.8-12.7,7.8-12.7
		s-5.1,0.1-12.4,8.3l-16-1.7l-2,2l13.2,5.6l-6.6,8.1l-5.4,0.1l-1.3,1.4L369.4,127.1z"/>
	<path class="st0" d="M276.1,265.4c0.2,6,4.9,8.7,10.3,8.7c3.9,0,6.7-0.5,9.3-1.5l1.2,5.8c-2.9,1.2-6.9,2.1-11.7,2.1
		c-10.9,0-17.2-6.7-17.2-17c0-9.3,5.6-18,16.3-18c10.9,0,14.4,8.9,14.4,16.3c0,1.6-0.1,2.8-0.3,3.6H276.1z M290.8,259.5
		c0.1-3.1-1.3-8.2-6.9-8.2c-5.2,0-7.4,4.7-7.8,8.2H290.8z"/>
	<path class="st0" d="M303.5,231h8.5v48.8h-8.5V231z"/>
	<path class="st0" d="M319.4,234.1c3.7-0.6,8.4-1,13.5-1c8.7,0,14.6,1.8,18.9,5.4c4.5,3.6,7.2,9.1,7.2,17c0,8.2-2.8,14.4-7.2,18.4
		c-4.6,4.2-11.9,6.3-20.9,6.3c-4.9,0-8.7-0.3-11.4-0.6V234.1z M327.8,273.3c1.2,0.2,3,0.2,4.7,0.2c11,0.1,17.5-6,17.5-17.7
		c0.1-10.2-5.8-16.1-16.4-16.1c-2.7,0-4.6,0.2-5.8,0.5V273.3z"/>
	<path class="st0" d="M369.9,265.4c0.2,6,4.9,8.7,10.3,8.7c3.9,0,6.7-0.5,9.3-1.5l1.2,5.8c-2.9,1.2-6.9,2.1-11.7,2.1
		c-10.9,0-17.2-6.7-17.2-17c0-9.3,5.6-18,16.3-18c10.9,0,14.4,8.9,14.4,16.3c0,1.6-0.1,2.8-0.3,3.6H369.9z M384.6,259.5
		c0.1-3.1-1.3-8.2-6.9-8.2c-5.2,0-7.4,4.7-7.8,8.2H384.6z"/>
	<path class="st0" d="M423.2,271.7c0,3,0.1,6,0.5,8h-7.6l-0.5-3.7h-0.2c-2.1,2.6-5.6,4.5-9.9,4.5c-6.7,0-10.5-4.9-10.5-10
		c0-8.4,7.5-12.7,19.8-12.6v-0.5c0-2.2-0.9-5.8-6.8-5.8c-3.3,0-6.7,1-9,2.5l-1.6-5.5c2.5-1.5,6.8-3,12.1-3
		c10.7,0,13.8,6.8,13.8,14.1V271.7z M415,263.4c-6-0.1-11.7,1.2-11.7,6.2c0,3.3,2.1,4.8,4.8,4.8c3.4,0,5.8-2.2,6.6-4.6
		c0.2-0.6,0.3-1.3,0.3-1.9V263.4z"/>
	<path class="st0" d="M430.1,231h8.5v48.8h-8.5V231z"/>
	<path class="st0" d="M445.2,272c1.9,1.2,5.6,2.4,8.6,2.4c3.7,0,5.4-1.5,5.4-3.7c0-2.3-1.4-3.4-5.5-4.9c-6.5-2.3-9.3-5.8-9.2-9.7
		c0-5.9,4.9-10.5,12.6-10.5c3.7,0,6.9,1,8.9,2l-1.6,6c-1.4-0.8-4.1-1.9-7.1-1.9c-3,0-4.7,1.4-4.7,3.5c0,2.1,1.6,3.2,5.8,4.7
		c6,2.2,8.9,5.3,8.9,10.2c0,6-4.7,10.5-13.6,10.5c-4.1,0-7.7-1-10.2-2.4L445.2,272z"/>
	<path class="st0" d="M194,242.2l2.4,6.4l33.4,46.6l63.7-76.1v-17.4l-66.3,65.1L194,242.2z M317.9,177.8c0.9,3.2,1.4,6.6,1.5,10.4
		l47.9-57.2l0.1-1.7L317.9,177.8z"/>
	<path class="st0" d="M448.6,137v88.8h15.5V137H448.6z M272,174.2h-0.4l-0.7-9h-13.3c0.4,5.2,0.5,10.9,0.5,17.8v42h2.5l12.7-12.4
		v-22.7c0-1.7,0.1-3.6,0.6-4.9c1-2.8,3-5.5,5.8-7.2v-11.1C276.1,168.8,273.4,171.6,272,174.2z M245.5,165.2h-15.1v36.1
		c0,1.7-0.4,3.3-0.9,4.7c-1.6,3.8-5.5,8.1-11.5,8.1c-8,0-11.2-6.4-11.2-16.3v-32.5h-15.1v35.1c0,19.5,9.9,26,20.9,26
		c10.7,0,16.6-6.1,19.2-10.4h0.2l0.7,9.1H246c-0.2-4.9-0.5-10.8-0.5-17.9V165.2z M339.9,137.8h-15.2v24.4l15.2-14.9V137.8z
		 M279.8,166.7c0.3-0.2,0.6-0.4,1-0.5C280.4,166.3,280.1,166.5,279.8,166.7L279.8,166.7z M418.9,225h15.2v-87.2h-15.2V225z
		 M398.8,140.3c-5,0-8.5,3.6-8.5,8.2c0,4.5,3.3,8.1,8.3,8.1c5.3,0,8.6-3.6,8.6-8.1C407.2,143.8,404,140.3,398.8,140.3z M391.2,225
		h15.2v-59.8h-15.2V225z M169.8,151.2c-7.6-6.4-18.3-9.6-33.8-9.6c-9,0-17.4,0.6-24.1,1.7v81.4c4.9,0.6,11.5,1.1,20.4,1.1
		c16.1,0,29.2-3.8,37.4-11.3c7.9-7.1,12.9-18.2,12.9-32.9C182.7,167.5,177.8,157.7,169.8,151.2z M135.4,213.8c-3.1,0-6.3,0-8.3-0.4
		v-59.2c2.1-0.5,5.5-0.9,10.3-0.9c18.9,0,29.5,10.4,29.3,28.7C166.7,203.1,155,213.9,135.4,213.8z M357.9,163.8
		c-3.8,0-7.4,1-10.3,2.7c-1.7,0.9-3.2,2-4.5,3.3l-2.9,3.4c0,0.1-0.1,0.1-0.1,0.2h0l-15.4,18.5V225h15.2v-35.7c0-1.7,0.1-3.3,0.6-4.5
		c1.6-4.5,5.8-8.5,11.7-8.5c8.3,0,11.5,6.5,11.5,15.2V225h15.1v-35.2C378.8,170.6,368.1,163.8,357.9,163.8z"/>
	<path class="st0" d="M291.6,163.8c-4.5,0-8.3,1.1-11.3,2.8l-2.6,7.1l2.6,4c1.7-1,3.7-1.6,6-1.6c8.3,0,11.5,6.5,11.5,15.1v33.9h15.1
		v-35.6C312.9,170.6,302.1,163.8,291.6,163.8z"/>
	<g>
		<g>
			<path class="st0" d="M474,288.1c0.2,0,0.4-0.1,0.6-0.1c0.4,0,0.6,0.1,0.8,0.2c0.1,0.1,0.2,0.3,0.2,0.5c0,0.3-0.2,0.6-0.5,0.7v0
				c0.2,0.1,0.3,0.3,0.4,0.5c0.1,0.4,0.1,0.6,0.2,0.7h-0.3c0-0.1-0.1-0.3-0.2-0.6c-0.1-0.4-0.2-0.5-0.5-0.5h-0.3v1.1H474V288.1z
				 M474.3,289.3h0.3c0.4,0,0.6-0.2,0.6-0.5c0-0.3-0.2-0.5-0.6-0.5c-0.2,0-0.3,0-0.3,0V289.3z"/>
		</g>
		<path class="st0" d="M474.8,287.1c-1.3,0-2.3,1.1-2.3,2.3c0,1.3,1.1,2.3,2.3,2.3c1.3,0,2.3-1.1,2.3-2.3
			C477.1,288.1,476.1,287.1,474.8,287.1z M474.8,291.5c-1.1,0-2-0.9-2-2c0-1.1,0.9-2,2-2c1.1,0,2,0.9,2,2
			C476.9,290.5,475.9,291.5,474.8,291.5z"/>
	</g>
	<g>
		<path class="st0" d="M472.3,142.7l1-0.1c0,0.4,0.2,0.7,0.3,1c0.2,0.3,0.5,0.5,0.8,0.6c0.4,0.2,0.8,0.2,1.3,0.2
			c0.4,0,0.8-0.1,1.1-0.2c0.3-0.1,0.6-0.3,0.7-0.5c0.2-0.2,0.2-0.4,0.2-0.7c0-0.3-0.1-0.5-0.2-0.7c-0.1-0.2-0.4-0.4-0.7-0.5
			c-0.2-0.1-0.7-0.2-1.5-0.4c-0.8-0.2-1.3-0.3-1.6-0.5c-0.4-0.2-0.7-0.5-0.9-0.8c-0.2-0.3-0.3-0.6-0.3-1c0-0.4,0.1-0.8,0.4-1.2
			c0.2-0.4,0.6-0.6,1-0.8c0.4-0.2,0.9-0.3,1.5-0.3c0.6,0,1.1,0.1,1.6,0.3c0.5,0.2,0.8,0.5,1.1,0.9c0.2,0.4,0.4,0.8,0.4,1.3l-1,0.1
			c-0.1-0.5-0.2-0.9-0.6-1.2c-0.3-0.3-0.8-0.4-1.4-0.4c-0.7,0-1.1,0.1-1.4,0.4c-0.3,0.2-0.4,0.5-0.4,0.9c0,0.3,0.1,0.5,0.3,0.7
			c0.2,0.2,0.8,0.4,1.6,0.6c0.9,0.2,1.5,0.4,1.8,0.5c0.5,0.2,0.8,0.5,1.1,0.8c0.2,0.3,0.3,0.7,0.3,1.2c0,0.4-0.1,0.8-0.4,1.2
			s-0.6,0.7-1.1,0.9c-0.5,0.2-1,0.3-1.6,0.3c-0.7,0-1.4-0.1-1.9-0.3c-0.5-0.2-0.9-0.5-1.2-1C472.5,143.7,472.3,143.2,472.3,142.7z"
			/>
		<path class="st0" d="M480.2,145.3v-8.2h1.6l1.9,5.8c0.2,0.5,0.3,0.9,0.4,1.2c0.1-0.3,0.2-0.7,0.4-1.3l2-5.7h1.5v8.2h-1v-6.8
			l-2.4,6.8h-1l-2.4-7v7H480.2z"/>
	</g>
</g>
</svg>
