<?xml version="1.0" encoding="utf-8"?>
<!-- Generator: Adobe Illustrator 22.0.1, SVG Export Plug-In . SVG Version: 6.00 Build 0)  -->
<svg version="1.1" id="Layer_1" xmlns="http://www.w3.org/2000/svg" xmlns:xlink="http://www.w3.org/1999/xlink" x="0px" y="0px"
	 viewBox="0 0 600 400" style="enable-background:new 0 0 600 400;" xml:space="preserve">
<style type="text/css">
	.st0{fill:#00323F;}
</style>
<g>
	<g>
		<path class="st0" d="M163.1,259.4c-5.8,9.5-16.3,16.2-27,18.8c-12,2.9-25.5,0.4-34.8-8.1c-9.7-8.9-12.7-23.4-5.9-34.9
			c3.3-5.5,8.5-9.9,14.6-12c2.9-1,5.9-1.5,8.9-1.4c-0.1-0.1-0.2-0.3-0.3-0.4c-0.5-0.8-1-1.7-1.2-2.6c-0.2-0.9-0.3-1.7-0.3-2.4
			c0-0.3,0-0.5,0-0.7c-1-0.1-1.7-0.9-1.6-1.8c0.1-0.9,0.9-1.7,1.8-1.6c1,0.1,1.7,0.9,1.6,1.8c-0.1,0.9-0.7,1.5-1.5,1.6
			c0,0.2,0.1,0.4,0.2,0.7c0.3,1.3,1,2.9,2.2,4.1c0.6,0.6,1.3,1.1,1.9,1.5c0,0.1,0.1,0.1,0.1,0.2c0.1,0,0.2,0,0.3,0.1
			c-0.1-0.1-0.2-0.2-0.4-0.2c-0.4-0.7-0.7-1.5-0.9-2.3c-0.2-0.9-0.4-1.9-0.3-2.8c0.1-0.9,0.2-1.7,0.4-2.4c0.1-0.3,0.2-0.5,0.2-0.7
			c-0.9-0.4-1.3-1.4-0.9-2.2c0.3-0.9,1.4-1.3,2.2-1c0.9,0.4,1.3,1.4,1,2.2c-0.3,0.8-1.2,1.2-2,1c0,0.2-0.1,0.5-0.1,0.7
			c-0.1,1.3,0,3.1,0.8,4.5c0.4,0.9,1,1.7,1.6,2.4c-0.1-0.8-0.2-1.6-0.2-2.4c0-1,0.2-1.9,0.5-2.8c0.3-0.8,0.7-1.6,1-2.2
			c0.1-0.2,0.3-0.4,0.4-0.6c-0.8-0.6-0.9-1.7-0.3-2.4c0.6-0.8,1.7-0.9,2.4-0.3c0.8,0.6,0.9,1.7,0.3,2.4c-0.5,0.7-1.5,0.9-2.2,0.5
			c-0.1,0.2-0.2,0.4-0.3,0.7c-0.5,1.2-0.8,2.9-0.5,4.6c0.3,1.6,1.1,3.2,1.7,4.2c0.2,0.4,0.5,0.7,0.7,1c3.8,2.3,6.1,7.3,7.3,7.9
			c0.9,0.4,8.7,4.1,9.9,7.5c-4.9-0.5-8.4-1.2-12.3,1.7c-4,3.1-10.5,7.6-15.3,6.6c3.4-1.9,6.9-4.3,8.1-8c1.3-4-0.7-8.5-4.1-10.8
			s-8-2.5-11.9-1c-5.6,2.1-9.7,7.3-10.9,13.2c-1.2,5.8,0.2,12,3.4,17c6.6,10.4,19.5,15.7,31.5,13.7c9.8-1.7,18.5-7.6,24.8-15.3
			c11.4-26.4-1.8-89.3-3-94.9c-0.1-0.3-0.1-0.4-0.1-0.4c-0.6-3.4,1.7-6.6,5-7.2c3.4-0.6,6.7,1.6,7.3,5c7.1,39.5,5.5,64.8,3.4,78.3
			c0,0,0,0.1,0,0.1c-0.3,2.5-0.8,5-1.5,7.4c0,0.1,0,0.1,0,0.2c-0.7,2.8-1.3,4.3-1.3,4.4c22.6-24.4,10.3-101,9.7-104.8
			c0,0,0-0.1,0-0.2c-0.6-3.4,1.7-6.6,5.1-7.3c3.4-0.6,6.6,1.7,7.2,5c0,0.2,0.1,0.4,0.1,0.6c10.6,70.2-7.8,98.5-8.2,99.2
			c30.2-31,18.8-110.8,18.2-114.2c0-0.1,0-0.1,0-0.1c-0.6-3.4,1.7-6.7,5-7.3c3.4-0.6,6.7,1.7,7.3,5
			C228.9,219.3,182.7,250.6,163.1,259.4z"/>
		<g>
			<path class="st0" d="M122.1,222.2c-0.1,0-0.2,0-0.3-0.1c0-0.1,0-0.1-0.1-0.2C121.8,222.1,122,222.1,122.1,222.2z"/>
			<path class="st0" d="M122.1,222.2c-0.1,0-0.2,0-0.3-0.1c0-0.1,0-0.1-0.1-0.2C121.8,222.1,122,222.1,122.1,222.2z"/>
		</g>
		<circle class="st0" cx="116.5" cy="234" r="2.7"/>
	</g>
	<g>
		<g>
			<path class="st0" d="M499.4,215.7c-2.4,0-4-0.4-4.7-1.2c-0.7-0.8-1-2.5-1-5.1v-16.9h-8.2v18.8c0,1.4,0.1,2.9,0.4,4.4H475
				c-1.7,0-2.7-0.2-3.1-0.7c-0.4-0.5-0.6-1.6-0.6-3.3v-23.9c-6.6,0-12.2,0.7-16.8,2c-4.6,1.3-8.3,3-11.2,5c-2.9,2-5,4.3-6.4,6.9
				c-1.4,2.5-2.1,5.1-2.2,7.6c-0.1,2.2,0.4,4.4,1.6,6.6h-19.1c1.6-1.3,2.8-2.8,3.6-4.7c0.9-1.9,1.4-3.9,1.5-5.9
				c0.1-2-0.1-4.1-0.7-6.3c-0.5-2.1-1.4-4.1-2.5-5.8c-1.8-2.8-3.8-4.6-5.9-5.2c-2.1-0.7-4.2-0.7-6.4,0.1s-4.4,2-6.5,3.9
				c-2.1,1.9-4.2,4-6.2,6.3c-2,2.3-3.9,4.8-5.6,7.2c-1.7,2.5-3.2,4.7-4.4,6.6v-59.6h-8.5v63.4h-11.7c0.1-0.5,0.2-1,0.2-1.5v-21.8h-8
				v16.9c0,2.5-0.5,4.2-1.5,5c-1,0.8-2.8,1.2-5.3,1.2h-19.6c-2.4,0-4-0.4-4.7-1.2c-0.7-0.8-1-2.5-1-5.1v-16.9h-8.2v18.8
				c0,1.4,0.1,2.9,0.4,4.4h-13.1v-63.4H295l-0.3,59.6c-1.3-2-2.8-4.2-4.4-6.6c-1.7-2.5-3.6-4.9-5.6-7.2c-2-2.3-4.1-4.5-6.3-6.3
				c-2.2-1.9-4.4-3.2-6.5-3.9c-2.1-0.7-4.3-0.8-6.4-0.1c-2.1,0.7-4.1,2.4-5.9,5.2c-1.2,1.8-2,3.7-2.6,5.8c-0.6,2.1-0.8,4.2-0.7,6.3
				c0.2,2,0.6,4,1.5,5.9c0.8,1.9,2,3.5,3.6,4.7h-11.4l0.1,8h255.3v-8H499.4z M280.7,216.2c-2.5,0.1-4.9,0-7.1-0.6
				c-2.2-0.5-4.2-1.6-5.8-3.1c-1.7-1.5-2.7-3.9-3.1-7c-0.5-2.9,0.1-5.7,1.8-8.2c1.1-1.7,2.5-2,4.3-1.2c1.8,0.9,3.7,2.4,5.8,4.5
				c2,2.1,4,4.6,6,7.4c2,2.8,3.7,5.4,5.1,7.6C285.5,215.9,283.2,216.1,280.7,216.2z M414,205.5c-0.4,3.1-1.4,5.5-3.1,7
				c-1.7,1.6-3.6,2.6-5.8,3.1c-2.2,0.5-4.6,0.7-7.2,0.6c-2.5-0.1-4.9-0.3-7-0.5c1.5-2.2,3.2-4.8,5.1-7.6c1.9-2.8,3.9-5.3,6-7.4
				c2-2.1,4-3.6,5.8-4.5c1.8-0.9,3.2-0.5,4.3,1.2C413.6,199.8,414.3,202.5,414,205.5z M463.2,215.7H450c-1.6,0-2.9-0.2-4.2-0.7
				c-1.2-0.4-1.9-1.8-2-4.2c0-2.3,0.6-4.5,1.7-6.4c1.1-1.9,2.6-3.6,4.4-5c1.8-1.4,3.9-2.4,6.2-3.1c2.3-0.7,4.7-1.1,7-1.1V215.7z"/>
			<path class="st0" d="M346.8,228.1l-5.3,5.3l5.3,5.1l5.1-5.1L346.8,228.1z M334.1,228.1l-5.1,5.3l5.1,5.1l5.3-5.1L334.1,228.1z"/>
			<path class="st0" d="M489.5,178.9l-5.1,5.1l5.1,5.2l5.2-5.2L489.5,178.9z"/>
		</g>
		<g>
			<path class="st0" d="M277.6,253.6c-1.9,0.3-2.3,0.6-3.2,3c-0.7,1.9-2.4,7.1-4.8,15.2h-1.3c-1.6-4.5-3.3-9.1-4.9-13.4h-0.1
				c-1.5,4.6-3,9.1-4.5,13.4h-1.3c-1.6-5.2-3.1-10.2-4.7-15.3c-0.7-2.3-1.2-2.6-2.9-2.9v-1h8v1c-2.2,0.3-2.2,0.6-1.8,2.1
				c1,3.6,2.1,7.1,3.2,10.6h0.1c1.4-4.4,3-8.9,4.3-13.5h1.2c1.6,4.5,3.3,9.1,4.9,13.5h0.1c1.2-3.6,2.5-8.6,2.9-10.4
				c0.4-1.7,0.3-2.2-2-2.4v-1h6.6V253.6z"/>
			<path class="st0" d="M297,266.7c-0.2,1.2-0.8,3.8-1,4.7h-14.5v-0.9c2.5-0.2,2.8-0.4,2.8-2.8v-11.3c0-2.5-0.3-2.7-2.4-2.8v-1h13.3
				c0,0.6,0.2,2.6,0.3,4.3l-1,0.1c-0.3-1.1-0.6-1.9-1.1-2.5c-0.5-0.5-1.2-0.8-3-0.8h-1.7c-1,0-1.1,0.1-1.1,1v6.3h2.2
				c2.5,0,2.8-0.2,3.2-2.2h1v5.7h-1c-0.4-2.1-0.7-2.2-3.2-2.2h-2.2v5.2c0,1.4,0.1,2.1,0.7,2.4c0.5,0.3,1.5,0.3,2.7,0.3
				c1.8,0,2.7-0.2,3.4-1c0.5-0.6,1.1-1.6,1.6-2.8L297,266.7z"/>
			<path class="st0" d="M310,252.6c3.6,0,6.4,0.8,8.2,2.5c1.4,1.4,2.5,3.4,2.5,6.2c0,3.5-1.4,6-3.6,7.7c-2.1,1.6-5.1,2.4-8.7,2.4
				h-7.2v-0.9c2.4-0.2,2.6-0.4,2.6-2.8v-11.3c0-2.5-0.3-2.7-2.4-2.8v-1H310z M307.3,267.4c0,2.1,0.6,2.8,2.7,2.8
				c4.4,0,7.1-3.5,7.1-8.4c0-2.9-1-5.2-2.6-6.5c-1.2-1.1-2.8-1.6-4.8-1.6c-1.1,0-1.8,0.2-2,0.4c-0.2,0.2-0.3,0.7-0.3,1.6V267.4z"/>
			<path class="st0" d="M334.3,252.6c3.6,0,6.4,0.8,8.2,2.5c1.4,1.4,2.5,3.4,2.5,6.2c0,3.5-1.4,6-3.6,7.7c-2.1,1.6-5.1,2.4-8.7,2.4
				h-7.2v-0.9c2.4-0.2,2.6-0.4,2.6-2.8v-11.3c0-2.5-0.3-2.7-2.4-2.8v-1H334.3z M331.6,267.4c0,2.1,0.6,2.8,2.7,2.8
				c4.4,0,7.1-3.5,7.1-8.4c0-2.9-1-5.2-2.6-6.5c-1.2-1.1-2.8-1.6-4.8-1.6c-1.1,0-1.8,0.2-2,0.4c-0.2,0.2-0.3,0.7-0.3,1.6V267.4z"/>
			<path class="st0" d="M350,271.4v-0.9c2.2-0.2,2.5-0.4,2.5-2.8v-11.3c0-2.5-0.3-2.7-2.5-2.8v-1h8.3v1c-2.2,0.2-2.5,0.4-2.5,2.8
				v11.3c0,2.4,0.2,2.6,2.5,2.8v0.9H350z"/>
			<path class="st0" d="M383.2,253.5c-1.6,0.1-2.2,0.5-2.3,1.8c-0.1,0.9-0.2,2.2-0.2,4.8v11.5h-1.2L367.3,257h-0.1v6.8
				c0,2.6,0.1,3.9,0.2,4.7c0.1,1.4,0.7,1.8,2.8,1.9v0.9h-7v-0.9c1.6-0.1,2.3-0.5,2.5-1.9c0.1-1,0.2-2.3,0.2-4.8v-6.2
				c0-2,0-2.4-0.6-3c-0.6-0.7-1.2-1-2.5-1.1v-0.9h5l11.4,13.3h0.1v-5.8c0-2.6-0.1-4-0.2-4.8c-0.2-1.2-0.8-1.7-2.9-1.8v-0.9h7V253.5z
				"/>
			<path class="st0" d="M406.6,263.5c-1.5,0.3-1.7,0.4-1.7,2.2v2.4c0,1,0,2,0.2,2.7c-1.8,0.4-4.3,1.1-6.6,1.1
				c-6.6,0-10.9-3.9-10.9-9.6c0-6.7,5.4-10,11.3-10c2.4,0,4.6,0.6,5.6,0.8c0.1,1,0.2,2.5,0.5,4.7l-1,0.2c-0.7-3.3-2.9-4.5-5.6-4.5
				c-3.8,0-6.9,3.2-6.9,8.4c0,4.3,2.3,9,7.3,9c0.8,0,1.5-0.1,2-0.4c0.5-0.3,0.8-0.7,0.8-1.7v-2.7c0-2-0.2-2.2-3.1-2.5v-0.9h8.2
				V263.5z"/>
			<path class="st0" d="M436.1,257.4c-0.3-1.4-0.7-2.3-1.1-2.8c-0.5-0.6-1.2-0.8-3-0.8h-1.6v13.9c0,2.4,0.3,2.6,2.9,2.8v0.9h-9v-0.9
				c2.5-0.2,2.8-0.4,2.8-2.8v-13.9h-1.3c-2.4,0-2.9,0.3-3.3,0.8c-0.4,0.5-0.8,1.4-1.1,2.8h-1c0.1-2,0.3-4,0.3-5.5h0.7
				c0.4,0.7,0.8,0.7,1.6,0.7h11.6c0.8,0,1.1-0.2,1.6-0.7h0.7c0,1.2,0.1,3.6,0.3,5.4L436.1,257.4z"/>
			<path class="st0" d="M456.9,266.7c-0.2,1.2-0.8,3.8-1,4.7h-14.5v-0.9c2.5-0.2,2.8-0.4,2.8-2.8v-11.3c0-2.5-0.3-2.7-2.4-2.8v-1
				h13.3c0,0.6,0.2,2.6,0.3,4.3l-1,0.1c-0.3-1.1-0.6-1.9-1.1-2.5c-0.5-0.5-1.2-0.8-3-0.8h-1.7c-1,0-1.1,0.1-1.1,1v6.3h2.2
				c2.5,0,2.8-0.2,3.2-2.2h1v5.7h-1c-0.4-2.1-0.7-2.2-3.2-2.2h-2.2v5.2c0,1.4,0.1,2.1,0.7,2.4c0.5,0.3,1.5,0.3,2.7,0.3
				c1.8,0,2.7-0.2,3.4-1c0.5-0.6,1.1-1.6,1.6-2.8L456.9,266.7z"/>
			<path class="st0" d="M472.1,271.4v-0.9c1.7-0.3,1.9-0.6,1.5-1.8c-0.3-1-0.8-2.3-1.3-3.7h-5.8c-0.4,1.1-0.8,2.2-1.1,3.3
				c-0.5,1.6-0.3,1.9,1.8,2.2v0.9h-6.4v-0.9c1.9-0.3,2.3-0.5,3.2-3l5.9-15l1.3-0.3c1.9,5,3.7,10.2,5.6,15.2c1,2.5,1.3,2.9,3.2,3.1
				v0.9H472.1z M469.5,256.9L469.5,256.9c-0.9,2.2-1.7,4.5-2.5,6.7h4.8L469.5,256.9z"/>
			<path class="st0" d="M500,271.4v-0.9c2.3-0.2,2.4-0.4,2.4-3.2l-0.1-11.4h-0.1l-6.6,15.3h-0.8l-6.1-15h-0.1l-0.4,7.8
				c-0.1,2.4-0.1,3.7,0,4.7c0.1,1.3,0.7,1.6,2.6,1.7v1H484v-1c1.6-0.1,2.2-0.6,2.4-1.7c0.2-1,0.4-2.4,0.6-5.4l0.4-5.8
				c0.3-3.5,0.1-3.8-2.5-4v-1h5.6l5.9,13.3l6-13.3h5.5v1c-2.4,0.2-2.5,0.4-2.5,3l0.3,10.7c0.1,2.8,0.2,3,2.5,3.2v0.9H500z"/>
		</g>
	</g>
</g>
</svg>
