<?xml version="1.0" encoding="utf-8"?>
<!-- Generator: Adobe Illustrator 22.0.1, SVG Export Plug-In . SVG Version: 6.00 Build 0)  -->
<svg version="1.1" id="Layer_1" xmlns="http://www.w3.org/2000/svg" xmlns:xlink="http://www.w3.org/1999/xlink" x="0px" y="0px"
	 viewBox="0 0 600 400" style="enable-background:new 0 0 600 400;" xml:space="preserve">
<style type="text/css">
	.st0{fill:#00323F;}
</style>
<g>
	<g>
		<g>
			<g>
				<path class="st0" d="M481,218.7L481,218.7c0.9-0.3,1.4-1,1.4-2c0-1.5-1.2-1.9-2.6-1.9h-2.9v7.7h1.1v-3.4h1.6
					c0.5,0,1,0.2,1.1,0.5c0.3,0.4,0.3,0.9,0.4,1.6c0.1,0.5,0.2,0.9,0.3,1.3h1.1c-0.2-0.7-0.3-1.5-0.4-2.2
					C482,219.4,481.9,218.8,481,218.7z M479.8,218.1H478v-2.5h1.8c1.1,0,1.4,0.7,1.4,1.2C481.3,217.6,480.9,218.1,479.8,218.1z"/>
				<path class="st0" d="M479.5,212.1c-3.6,0-6.8,2.9-6.8,6.7c0,3.9,3.1,6.7,6.8,6.7c3.7,0,6.7-2.8,6.7-6.7
					C486.3,214.9,483.2,212.1,479.5,212.1z M479.5,224.5c-3.1,0-5.7-2.6-5.7-5.8c0-3.1,2.6-5.7,5.7-5.7c3.2,0,5.7,2.6,5.7,5.7
					C485.2,221.9,482.8,224.5,479.5,224.5z"/>
			</g>
		</g>
	</g>
	<path class="st0" d="M427,220.9c-15.3,8-34.9,9.4-34.8-9.6c0,0-0.6-0.6-1.2-0.1c-5,3.1-10,6.7-15.3,8.9
		c-12.9,5.6-36.6,13.9-32.4-7.1c1.6-8.6,17-33.6,19.2-36.7c-0.2,0.3-4.2,0.8-4.1,0.7C343.8,195,332,208.1,321.1,216
		c-5.9,4.3-16.3,10.5-26.2,10.5c0,0-8,0.7-8.3-11.4c0,0-0.5-0.1-0.9,0c-9.4,7.8-58.7,28.2-44.2-16.7c0.1-0.3-0.5,0-0.5,0
		c-9.4,6.7-28,16.9-41.7,23.1c-15.7,20.3-24.6,31.1-37.5,46.2c-0.6,0.6-2.3,1.7-3.8,2.3c-1.4,0.4-36.3,10.3-40.1,10.9
		c-5,1.1-4.3-0.2-3.4-1.4c8.9-14.3,33.6-43.6,62.3-67.5c10.6-14.9,16.2-23.2,23.8-36.6c0.5-0.9,1.2-1.3,2.2-1.4
		c9.6-2.1,16.8-3.5,26.1-5.4c-2.2,0.5,1.9-0.8,1,0.9c-8,13.7-9.7,16.3-19.4,31.5c-0.2,0.2,0.7,0.4,1.1,0.2
		c3.1-1.1,33-17.7,41.3-27.3c0-0.1,0.6-0.4,0.9-0.5c11.1-2.3,10.1-1.5,21.3-3.8c0.2-0.1,1.2,0.2,0.9,0.9
		c-7.1,11.6-8.8,15.5-9.4,17.4c-5.7,19.5,17.2,10.6,25.2-1.5c3.1-4.5,5-8.5,6.9-11.7c0.6-1,0.6-1.8,2.4-1.9c0,0,15.7-2.7,22.5-4.1
		c2.2-0.4,2,0.4,1.7,1c-4.6,7.4-12.3,20.3-15.4,27.5c-3.9,9,0.3,10.9,6.4,6.9c6.5-4.2,21.7-18.6,29.9-28.5c0,0-0.5,0.2-2.6,0.6
		c-1.1,0.1-2.1-0.3-1.1-2.1c2-3.7,4.6-8.3,9.3-16.9c0.2-0.3,0.8-0.8,1-0.8c0.7-0.2,31.8-8.6,31.8-8.6c3.4-0.9,0.2,2.8,1.4,1.1
		c-6.7,9.3-10.6,14.1-17.9,22.5c0.2-0.2-0.8,1.1,1,0.9c10.6-1.8,7.4-1.8,17.6-3.4c1.1-0.3,2.7,0.2,1.6,1.8
		c-7.9,13.4-9.3,17.7-17.1,30.7c-4.4,7.1,0.9,8.8,10.7,2.8c6-3.6,8.9-8,12-11.1c3.9-4.2,7.5-8.2,11.4-11.2c4.8-3.6,9.8-6.7,21.7-9.3
		l0,0v0.1v-0.1l0,0c9.7-2,24-3.5,46.4-4.5c1.6-0.1,1.3,0.7,0.7,1.8c-3.4,7.2-11.3,21.9-16.8,34.7c-1.4,3.1-2.9,7.8,0.5,8.4
		c2.4,0.4,4.6-1.1,8.7-3.6c0.1-0.2,0.4-0.3,0.7-0.2c0.1,0,1,0.6,1.4,0.7c0.2,0.3,0.1,0.5,0.1,0.6c-2.6,4.4-4.7,7.7-8.6,11.5
		c-9.4,9.1-22.9,2.4-22.6-7.2c0-0.2-0.7-0.3-0.9,0c-2.5,2.1-5.4,4.1-8.6,5.8l0,0l-0.1,0.1C427.4,220.6,427.2,220.7,427,220.9
		L427,220.9L427,220.9L427,220.9z M428.4,201.3c1.2-0.9,3.6-2.2,5.3-3.9c1.6-1.5,4.1-4.5,4.9-5.8c1.2-1.9,3.2-5.1,2.8-7.4
		c-0.5-1.5-2.8-2-5.2-1.8c-3.2,0.2-6.2,1-9.2,2.3l0,0l0,0l0,0l0,0c-0.5,0.2-1,0.5-1.6,0.7c-2.5,1.1-6.2,3.8-8.3,6
		c-2.7,3-5.2,7.8-4.3,10.6c0.8,2.5,5.1,3.9,8.3,2.8C423.9,203.8,425.8,202.8,428.4,201.3L428.4,201.3z M222.8,125L222.8,125
		L222.8,125L222.8,125c-1.9,3.6-4.8,8.2-6.8,13.6c-4.2,11.2,18.5,8.1,26.8-4.5c3.6-5.5,5.2-8.4,7.5-13.1c1.6-3.1-0.9-2.2-1.5-2.1
		l0,0l-22.7,4.2l0,0C226,123.1,223.6,123.5,222.8,125z"/>
</g>
</svg>
