<?xml version="1.0" encoding="utf-8"?>
<!-- Generator: Adobe Illustrator 22.0.1, SVG Export Plug-In . SVG Version: 6.00 Build 0)  -->
<svg version="1.1" id="Layer_1" xmlns="http://www.w3.org/2000/svg" xmlns:xlink="http://www.w3.org/1999/xlink" x="0px" y="0px"
	 viewBox="0 0 600 400" style="enable-background:new 0 0 600 400;" xml:space="preserve">
<style type="text/css">
	.st0{fill:#00323F;}
	.st1{opacity:0;fill:#00323F;}
</style>
<g>
	<path class="st0" d="M251.5,172.4c-0.1-1.4-0.6-2.6-2.1-3.1c-2.5-0.8-7.1-0.7-9.5,2c-1.6,1.7-2.3,3.8-3,6.2c3.6,0,7,0,10.4,0
		c1.2,0,2.9,0.6,3.4-0.2C251.7,176,251.6,174.1,251.5,172.4z M251.5,172.4c-0.1-1.4-0.6-2.6-2.1-3.1c-2.5-0.8-7.1-0.7-9.5,2
		c-1.6,1.7-2.3,3.8-3,6.2c3.6,0,7,0,10.4,0c1.2,0,2.9,0.6,3.4-0.2C251.7,176,251.6,174.1,251.5,172.4z M245.7,239.7
		c-3-0.3-6-0.4-8.9,0c-3.1,0.4-5.2,3-4.9,5.9c0.2,2.7,1.9,3.9,5.4,4h0.4v0c1-0.1,2-0.1,3-0.3c1.7-0.4,3.5-0.8,4-2.8
		c0.6-2.1,1.1-4.1,1.6-6.2C246.3,239.9,246.2,239.7,245.7,239.7z M251.5,172.4c-0.1-1.4-0.6-2.6-2.1-3.1c-2.5-0.8-7.1-0.7-9.5,2
		c-1.6,1.7-2.3,3.8-3,6.2c3.6,0,7,0,10.4,0c1.2,0,2.9,0.6,3.4-0.2C251.7,176,251.6,174.1,251.5,172.4z M286,184.7
		c-2.9-0.2-5.9-0.4-8.8,0c-3.1,0.4-5.2,2.8-5,5.8c0.1,2.7,1.9,4,5.3,4.1c0.2,0,0.3,0,0.5,0c0,0,0,0,0,0c1-0.1,2-0.1,3-0.3
		c2-0.4,3.8-1.1,4.3-3.5c0.4-1.8,0.9-3.6,1.3-5.4C286.6,185,286.7,184.7,286,184.7z M286,184.7c-2.9-0.2-5.9-0.4-8.8,0
		c-3.1,0.4-5.2,2.8-5,5.8c0.1,2.7,1.9,4,5.3,4.1c0.2,0,0.3,0,0.5,0c0,0,0,0,0,0c1-0.1,2-0.1,3-0.3c2-0.4,3.8-1.1,4.3-3.5
		c0.4-1.8,0.9-3.6,1.3-5.4C286.6,185,286.7,184.7,286,184.7z M251.5,172.4c-0.1-1.4-0.6-2.6-2.1-3.1c-2.5-0.8-7.1-0.7-9.5,2
		c-1.6,1.7-2.3,3.8-3,6.2c3.6,0,7,0,10.4,0c1.2,0,2.9,0.6,3.4-0.2C251.7,176,251.6,174.1,251.5,172.4z M245.7,239.7
		c-3-0.3-6-0.4-8.9,0c-3.1,0.4-5.2,3-4.9,5.9c0.2,2.7,1.9,3.9,5.4,4h0.4v0c1-0.1,2-0.1,3-0.3c1.7-0.4,3.5-0.8,4-2.8
		c0.6-2.1,1.1-4.1,1.6-6.2C246.3,239.9,246.2,239.7,245.7,239.7z M245.7,239.7c-3-0.3-6-0.4-8.9,0c-3.1,0.4-5.2,3-4.9,5.9
		c0.2,2.7,1.9,3.9,5.4,4h0.4v0c1-0.1,2-0.1,3-0.3c1.7-0.4,3.5-0.8,4-2.8c0.6-2.1,1.1-4.1,1.6-6.2
		C246.3,239.9,246.2,239.7,245.7,239.7z M251.5,172.4c-0.1-1.4-0.6-2.6-2.1-3.1c-2.5-0.8-7.1-0.7-9.5,2c-1.6,1.7-2.3,3.8-3,6.2
		c3.6,0,7,0,10.4,0c1.2,0,2.9,0.6,3.4-0.2C251.7,176,251.6,174.1,251.5,172.4z M286,184.7c-2.9-0.2-5.9-0.4-8.8,0
		c-3.1,0.4-5.2,2.8-5,5.8c0.1,2.7,1.9,4,5.3,4.1c0.2,0,0.3,0,0.5,0c0,0,0,0,0,0c1-0.1,2-0.1,3-0.3c2-0.4,3.8-1.1,4.3-3.5
		c0.4-1.8,0.9-3.6,1.3-5.4C286.6,185,286.7,184.7,286,184.7z M286,184.7c-2.9-0.2-5.9-0.4-8.8,0c-3.1,0.4-5.2,2.8-5,5.8
		c0.1,2.7,1.9,4,5.3,4.1c0.2,0,0.3,0,0.5,0c0,0,0,0,0,0c1-0.1,2-0.1,3-0.3c2-0.4,3.8-1.1,4.3-3.5c0.4-1.8,0.9-3.6,1.3-5.4
		C286.6,185,286.7,184.7,286,184.7z M251.5,172.4c-0.1-1.4-0.6-2.6-2.1-3.1c-2.5-0.8-7.1-0.7-9.5,2c-1.6,1.7-2.3,3.8-3,6.2
		c3.6,0,7,0,10.4,0c1.2,0,2.9,0.6,3.4-0.2C251.7,176,251.6,174.1,251.5,172.4z M245.7,239.7c-3-0.3-6-0.4-8.9,0
		c-3.1,0.4-5.2,3-4.9,5.9c0.2,2.7,1.9,3.9,5.4,4h0.4v0c1-0.1,2-0.1,3-0.3c1.7-0.4,3.5-0.8,4-2.8c0.6-2.1,1.1-4.1,1.6-6.2
		C246.3,239.9,246.2,239.7,245.7,239.7z M245.7,239.7c-3-0.3-6-0.4-8.9,0c-3.1,0.4-5.2,3-4.9,5.9c0.2,2.7,1.9,3.9,5.4,4h0.4v0
		c1-0.1,2-0.1,3-0.3c1.7-0.4,3.5-0.8,4-2.8c0.6-2.1,1.1-4.1,1.6-6.2C246.3,239.9,246.2,239.7,245.7,239.7z M251.5,172.4
		c-0.1-1.4-0.6-2.6-2.1-3.1c-2.5-0.8-7.1-0.7-9.5,2c-1.6,1.7-2.3,3.8-3,6.2c3.6,0,7,0,10.4,0c1.2,0,2.9,0.6,3.4-0.2
		C251.7,176,251.6,174.1,251.5,172.4z M286,184.7c-2.9-0.2-5.9-0.4-8.8,0c-3.1,0.4-5.2,2.8-5,5.8c0.1,2.7,1.9,4,5.3,4.1
		c0.2,0,0.3,0,0.5,0c0,0,0,0,0,0c1-0.1,2-0.1,3-0.3c2-0.4,3.8-1.1,4.3-3.5c0.4-1.8,0.9-3.6,1.3-5.4C286.6,185,286.7,184.7,286,184.7
		z M286,184.7c-2.9-0.2-5.9-0.4-8.8,0c-3.1,0.4-5.2,2.8-5,5.8c0.1,2.7,1.9,4,5.3,4.1c0.2,0,0.3,0,0.5,0c0,0,0,0,0,0
		c1-0.1,2-0.1,3-0.3c2-0.4,3.8-1.1,4.3-3.5c0.4-1.8,0.9-3.6,1.3-5.4C286.6,185,286.7,184.7,286,184.7z M251.5,172.4
		c-0.1-1.4-0.6-2.6-2.1-3.1c-2.5-0.8-7.1-0.7-9.5,2c-1.6,1.7-2.3,3.8-3,6.2c3.6,0,7,0,10.4,0c1.2,0,2.9,0.6,3.4-0.2
		C251.7,176,251.6,174.1,251.5,172.4z M245.7,239.7c-3-0.3-6-0.4-8.9,0c-3.1,0.4-5.2,3-4.9,5.9c0.2,2.7,1.9,3.9,5.4,4h0.4v0
		c1-0.1,2-0.1,3-0.3c1.7-0.4,3.5-0.8,4-2.8c0.6-2.1,1.1-4.1,1.6-6.2C246.3,239.9,246.2,239.7,245.7,239.7z M245.7,239.7
		c-3-0.3-6-0.4-8.9,0c-3.1,0.4-5.2,3-4.9,5.9c0.2,2.7,1.9,3.9,5.4,4h0.4v0c1-0.1,2-0.1,3-0.3c1.7-0.4,3.5-0.8,4-2.8
		c0.6-2.1,1.1-4.1,1.6-6.2C246.3,239.9,246.2,239.7,245.7,239.7z M251.5,172.4c-0.1-1.4-0.6-2.6-2.1-3.1c-2.5-0.8-7.1-0.7-9.5,2
		c-1.6,1.7-2.3,3.8-3,6.2c3.6,0,7,0,10.4,0c1.2,0,2.9,0.6,3.4-0.2C251.7,176,251.6,174.1,251.5,172.4z M286,184.7
		c-2.9-0.2-5.9-0.4-8.8,0c-3.1,0.4-5.2,2.8-5,5.8c0.1,2.7,1.9,4,5.3,4.1c0.2,0,0.3,0,0.5,0c0,0,0,0,0,0c1-0.1,2-0.1,3-0.3
		c2-0.4,3.8-1.1,4.3-3.5c0.4-1.8,0.9-3.6,1.3-5.4C286.6,185,286.7,184.7,286,184.7z M330.4,170c-1.4-0.3-2.8-0.3-4.2-0.2
		c-3.3,0.1-5.8,1.5-7.6,4.3c-2.5,4-3.4,8.3-3.7,12.9c0,0.5,0,1,0,1.5c0.2,3.2,1.8,5,4.8,5.4c1.9,0.3,3.7,0,5.5-0.3
		c1.8-0.4,2.8-1.4,3.2-3.2c0.7-3.7,1.6-7.3,2.4-11c0.5-2.1,0.9-4.3,1.4-6.4C332.6,170.9,332.3,170.4,330.4,170z M286,184.7
		c-2.9-0.2-5.9-0.4-8.8,0c-3.1,0.4-5.2,2.8-5,5.8c0.1,2.7,1.9,4,5.3,4.1c0.2,0,0.3,0,0.5,0c0,0,0,0,0,0c1-0.1,2-0.1,3-0.3
		c2-0.4,3.8-1.1,4.3-3.5c0.4-1.8,0.9-3.6,1.3-5.4C286.6,185,286.7,184.7,286,184.7z M251.5,172.4c-0.1-1.4-0.6-2.6-2.1-3.1
		c-2.5-0.8-7.1-0.7-9.5,2c-1.6,1.7-2.3,3.8-3,6.2c3.6,0,7,0,10.4,0c1.2,0,2.9,0.6,3.4-0.2C251.7,176,251.6,174.1,251.5,172.4z
		 M245.7,239.7c-3-0.3-6-0.4-8.9,0c-3.1,0.4-5.2,3-4.9,5.9c0.2,2.7,1.9,3.9,5.4,4h0.4v0c1-0.1,2-0.1,3-0.3c1.7-0.4,3.5-0.8,4-2.8
		c0.6-2.1,1.1-4.1,1.6-6.2C246.3,239.9,246.2,239.7,245.7,239.7z M330.4,170c-1.4-0.3-2.8-0.3-4.2-0.2c-3.3,0.1-5.8,1.5-7.6,4.3
		c-2.5,4-3.4,8.3-3.7,12.9c0,0.5,0,1,0,1.5c0.2,3.2,1.8,5,4.8,5.4c1.9,0.3,3.7,0,5.5-0.3c1.8-0.4,2.8-1.4,3.2-3.2
		c0.7-3.7,1.6-7.3,2.4-11c0.5-2.1,0.9-4.3,1.4-6.4C332.6,170.9,332.3,170.4,330.4,170z M245.7,239.7c-3-0.3-6-0.4-8.9,0
		c-3.1,0.4-5.2,3-4.9,5.9c0.2,2.7,1.9,3.9,5.4,4h0.4v0c1-0.1,2-0.1,3-0.3c1.7-0.4,3.5-0.8,4-2.8c0.6-2.1,1.1-4.1,1.6-6.2
		C246.3,239.9,246.2,239.7,245.7,239.7z M251.5,172.4c-0.1-1.4-0.6-2.6-2.1-3.1c-2.5-0.8-7.1-0.7-9.5,2c-1.6,1.7-2.3,3.8-3,6.2
		c3.6,0,7,0,10.4,0c1.2,0,2.9,0.6,3.4-0.2C251.7,176,251.6,174.1,251.5,172.4z M286,184.7c-2.9-0.2-5.9-0.4-8.8,0
		c-3.1,0.4-5.2,2.8-5,5.8c0.1,2.7,1.9,4,5.3,4.1c0.2,0,0.3,0,0.5,0c0,0,0,0,0,0c1-0.1,2-0.1,3-0.3c2-0.4,3.8-1.1,4.3-3.5
		c0.4-1.8,0.9-3.6,1.3-5.4C286.6,185,286.7,184.7,286,184.7z M330.4,170c-1.4-0.3-2.8-0.3-4.2-0.2c-3.3,0.1-5.8,1.5-7.6,4.3
		c-2.5,4-3.4,8.3-3.7,12.9c0,0.5,0,1,0,1.5c0.2,3.2,1.8,5,4.8,5.4c1.9,0.3,3.7,0,5.5-0.3c1.8-0.4,2.8-1.4,3.2-3.2
		c0.7-3.7,1.6-7.3,2.4-11c0.5-2.1,0.9-4.3,1.4-6.4C332.6,170.9,332.3,170.4,330.4,170z M286,184.7c-2.9-0.2-5.9-0.4-8.8,0
		c-3.1,0.4-5.2,2.8-5,5.8c0.1,2.7,1.9,4,5.3,4.1c0.2,0,0.3,0,0.5,0c0,0,0,0,0,0c1-0.1,2-0.1,3-0.3c2-0.4,3.8-1.1,4.3-3.5
		c0.4-1.8,0.9-3.6,1.3-5.4C286.6,185,286.7,184.7,286,184.7z M251.5,172.4c-0.1-1.4-0.6-2.6-2.1-3.1c-2.5-0.8-7.1-0.7-9.5,2
		c-1.6,1.7-2.3,3.8-3,6.2c3.6,0,7,0,10.4,0c1.2,0,2.9,0.6,3.4-0.2C251.7,176,251.6,174.1,251.5,172.4z M245.7,239.7
		c-3-0.3-6-0.4-8.9,0c-3.1,0.4-5.2,3-4.9,5.9c0.2,2.7,1.9,3.9,5.4,4h0.4v0c1-0.1,2-0.1,3-0.3c1.7-0.4,3.5-0.8,4-2.8
		c0.6-2.1,1.1-4.1,1.6-6.2C246.3,239.9,246.2,239.7,245.7,239.7z M330.4,170c-1.4-0.3-2.8-0.3-4.2-0.2c-3.3,0.1-5.8,1.5-7.6,4.3
		c-2.5,4-3.4,8.3-3.7,12.9c0,0.5,0,1,0,1.5c0.2,3.2,1.8,5,4.8,5.4c1.9,0.3,3.7,0,5.5-0.3c1.8-0.4,2.8-1.4,3.2-3.2
		c0.7-3.7,1.6-7.3,2.4-11c0.5-2.1,0.9-4.3,1.4-6.4C332.6,170.9,332.3,170.4,330.4,170z M442.8,115H193.4c-9.4,0-18.7,7.7-20.7,17
		l-28.9,136c-2,9.4,4,17,13.4,17h249.4c9.4,0,18.7-7.7,20.7-17l28.9-136C458.2,122.6,452.1,115,442.8,115z M309.9,169.1
		c3-4.5,7.3-7,12.6-7.6c3.8-0.4,7.6-0.5,11.4,0.5c1,0.2,0.7-0.6,0.8-1c0.9-4.1,1.7-8.2,2.6-12.4c0.3-1.4,0.5-2.8,1-4.2
		c0.4-1.3,1.2-2,2.6-2c1.9,0,3.8,0,5.7,0c1.7,0,2.2,0.6,2,2.2c-0.5,3.6-1.4,7.1-2.2,10.7c-2.4,11.3-4.8,22.5-7.1,33.8
		c-0.5,2.2-1,4.3-1.4,6.5s-1.8,3.6-3.8,4.4c-3,1.2-6,1.7-9.2,2c-1.7,0.2-3.3,0.3-4.9,0.2c-2.6,0.2-5.1-0.1-7.6-0.8
		c-5-1.5-8.1-5.3-8.2-10.8C304,183,305.5,175.7,309.9,169.1z M196,199.6c0.3-3,1.2-5.9,1.8-8.9c1.5-6.8,3-13.7,4.4-20.6
		c0.6-3.3,2.5-5.4,5.5-6.5c5.6-2.1,11.4-2.9,17.4-2.2c1.6,0.2,2.2,0.8,2.1,2.5c-0.1,1.7-0.5,3.3-1,4.8c-0.3,1-1,1.5-2.1,1.5
		c-1.2,0-2.3,0-3.5,0c-2.1,0-4.3-0.1-6.4,0.7c-1.2,0.5-2,1.3-2.2,2.6c-1.6,7.5-3.2,15-4.8,22.5c-0.2,1.2-0.5,2.3-0.8,3.5
		c-0.3,1.4-1.1,1.9-2.5,1.9c-2.1,0-4.2,0-6.3,0C196.3,201.4,195.9,201,196,199.6z M221.2,220c-0.3,1.4-0.6,2.7-1.1,4
		c-0.7,1.6-1.4,2-3.1,1.6c-3-0.5-6-0.9-9-0.5c-4.2,0.6-6.5,3.2-7.9,7c-1.4,3.8-2.2,7.6-1.5,11.7c0.5,2.8,2.5,4.5,5.3,4.9
		c2.9,0.3,5.8-0.1,8.6-0.6c2.1-0.4,2.5-0.1,2.9,1.9c0.2,1.3,0.3,2.5,0.4,3.8c0.1,1-0.4,1.7-1.3,2c-6.1,1.7-12.3,2.5-18.5,0.7
		c-5.4-1.6-8.4-5.5-8.6-11.4c-0.3-8,1.5-15.5,6.5-21.9c3.1-4,7.2-6.1,12.1-6.7c1.7-0.2,3.4-0.3,4.8-0.3c3.1,0,5.9,0.2,8.6,1
		C221.1,217.7,221.5,218.3,221.2,220z M259.3,226.5c-0.8,6.7-2.7,13.2-3.9,19.8c-0.3,1.3-0.6,2.6-0.9,3.9c-0.6,2.7-2.2,4.5-4.8,5.2
		c-6.6,2-13.3,2.6-20.1,1.4c-5.2-0.9-7.9-4.5-7.8-9.8c0.1-3,0.6-5.8,2.2-8.4c2.2-3.3,5.4-5,9.2-5.7c2.8-0.5,5.6-0.6,8.7-0.6
		c1.5,0.1,3.3-0.1,5.1,0.2c0.7,0.1,0.9-0.2,1-0.7c0.1-0.7,0.3-1.5,0.4-2.2c0.5-2.8-0.6-4.3-3.6-4.5c-3.9-0.2-7.8,0-11.6,0.9
		c-2.1,0.4-2.6,0.1-3.1-1.9c-0.2-0.9-0.4-1.8-0.5-2.7c-0.3-1.9,0.4-2.9,2.2-3.5c2.5-0.7,5.1-1.3,7.8-1.5c3.8-0.4,7.6-0.5,11.4,0
		c2.1,0.2,4.2,0.7,5.9,2C259.5,220.6,259.7,223.5,259.3,226.5z M259.9,181.8c-0.7,2.6-1.5,3.1-4.1,3.1c-3.2,0-6.4,0-9.6,0
		c-3.3,0-6.6,0-9.8,0c-1,0-1.3,0.3-1.2,1.2c0,1.2-0.1,2.3,0.1,3.5c0.5,2.5,2.4,3.8,5.3,4.2c4.3,0.5,8.4-0.2,12.6-1.1
		c1.2-0.3,1.9,0.2,2.2,1.3c0.3,1.2,0.7,2.4,0.8,3.6c0.1,1.7-0.3,2.2-1.9,2.9c-2.4,0.9-4.8,1.4-7.3,1.7c-4,0.3-7.9,0.6-11.9-0.1
		c-6.4-1.2-10.3-5.5-10.5-12.1c-0.2-7.6,1.5-14.7,6-20.9c3.2-4.4,7.6-6.9,13-7.5c3.2-0.3,6.4-0.4,9.5,0.2c5.5,1.1,8.2,4.3,8.2,9.9
		C261.2,175,260.8,178.4,259.9,181.8z M294.8,223.8c-0.4,1-1.1,1.5-2.2,1.5c-1.1,0-2.2,0-3.4,0c-2.1-0.1-4.1-0.1-6.1,0.6
		c-1.4,0.5-2.2,1.4-2.5,2.9c-1.5,7.1-3,14.1-4.5,21.2c-0.3,1.5-0.6,3.1-1,4.6c-0.3,1.4-1,1.9-2.5,2c-2.1,0-4.1,0-6.2,0
		c-1.5,0-2-0.4-1.8-2c0.3-3,1.2-5.8,1.8-8.7c1.5-6.9,3-13.7,4.4-20.6c0.6-3.3,2.5-5.4,5.5-6.5c5.6-2.1,11.4-2.9,17.4-2.2
		c1.6,0.2,2.2,0.8,2.1,2.5C295.8,220.6,295.4,222.2,294.8,223.8z M299.6,171.5c-0.8,6.7-2.7,13.3-4,19.9c-0.2,1.2-0.6,2.4-0.8,3.6
		c-0.6,2.9-2.3,4.7-5.1,5.5c-6.5,1.8-13.1,2.5-19.8,1.4c-5.3-0.9-8.1-4.5-8-9.8c0.1-3,0.6-5.8,2.2-8.4c2.2-3.3,5.4-5,9.2-5.7
		c2.8-0.5,5.6-0.6,8.8-0.6c1.4,0.1,3.3-0.1,5.1,0.2c0.7,0.1,0.8-0.3,0.9-0.7c0.1-0.7,0.2-1.5,0.4-2.2c0.5-2.9-0.6-4.3-3.5-4.5
		c-4-0.3-7.9,0-11.7,0.9c-1.9,0.4-2.5,0.1-3-1.8c-0.2-1-0.4-1.9-0.6-2.9c-0.2-1.9,0.4-2.8,2.2-3.4c2.5-0.8,5.1-1.3,7.8-1.5
		c3.8-0.4,7.6-0.5,11.4,0c2.1,0.2,4.2,0.7,5.9,2C299.8,165.6,300,168.5,299.6,171.5z M343.6,243.9c-4.5,0-8-3.6-8-8
		c0-4.4,3.4-8,7.9-8c4,0,7.2,2.6,7.9,6.3h-4.5c-0.5-1-1.4-2.1-3.2-2.1c-1,0-1.9,0.3-2.6,1.1c-0.6,0.7-1,1.7-1,2.8
		c0,2.2,1.4,3.8,3.6,3.8c1.9,0,2.8-1.1,3.2-2h4.6C350.7,241.2,347.7,243.9,343.6,243.9z M361,243.9c-5.4,0-8.1-4.3-8.1-8v0
		c0-3.6,2.6-7.9,8.1-7.9c5.5,0,8.1,4.3,8.1,8S366.5,243.9,361,243.9z M400,157.7v-2.6c-0.5,0-1,0.1-1.5,0.2
		c-1.9,0.3-3.7,0.7-5.5,1.3c-3,1.1-4.3,3.5-5.1,6.2l-1.7,7.5c-0.1,0.3-0.2,0.5-0.2,0.8v0l-2.3,10.3c0,0.1-0.1,0.2-0.1,0.3
		c-1.3,6-2.5,12.1-3.8,18.1c-0.2,0.9-0.4,1.8-0.6,2.6l-1.4,6.7c-0.6,2.5-1.5,4.9-2.8,7.1c-2.8,4.8-7.3,7.1-12.5,8.4
		c-2.9,0.7-5.8,1.1-8.8,1.3h-19.5l-5.3,3.1V226h-6.3v0h-0.1c-1.7,0-3.4,0.1-5.1,0c-0.8,0-1.1,0.3-1.2,1c-1.1,5-2.1,10.1-3.2,15.1
		c-0.2,1-0.2,2-0.1,3c0.2,1.3,0.8,2.2,2.1,2.7c1.1,0.4,2.3,0.6,3.5,0.8c1.9,0.2,2.5,0.8,2.3,2.7c-0.1,1.4-0.4,2.8-0.8,4.1
		c-0.3,0.9-0.9,1.6-1.8,1.6c-4.1,0.2-8.1,0.1-11.9-1.7c-3.2-1.5-4.7-4.4-4.5-8c0.4-6,2.1-11.7,3.2-17.5c0.2-1.2,0.5-2.4,0.8-3.8
		c-1.2,0-2.3,0-3.4,0c-1.7,0-2.2-0.6-2-2.2c0.1-1.6,0.5-3.2,1-4.7c0.3-1.1,1.2-1.7,2.3-1.7c0.1,0,0.2,0,0.2,0
		c1.3-0.1,2.9,0.5,3.7-0.2c0.8-0.7,0.7-2.4,1-3.6c0.4-1.4,0.7-2.9,1.1-4.3c0.5-2.1,1.4-2.8,3.5-2.8c1.6,0,3.2,0,4.7,0
		c1.5,0,1.9,0.6,1.8,2c-0.2,2.9-1.1,5.7-1.7,8.5c0,0.1,0,0.2-0.1,0.4c1.5,0,2.9,0,4.4,0h6.3v-2.7l4.7,2.7h15.2
		c2.5-0.1,5.1-0.2,7.6-0.5c1.9-0.3,3.7-0.7,5.5-1.3c3-1.1,4.3-3.5,5.1-6.2l1.7-7.5c0.1-0.3,0.2-0.5,0.2-0.8v0c0-0.2,0-0.3-0.1-0.5
		c-2.5,1-5.1,1.7-7.8,2c-3.3,0.3-6.6,0.3-9.8-0.9c-2.8-1-4.5-3.4-4.5-6.4c0-3.5,0.8-6.9,1.5-10.3c1.4-6.5,2.8-12.9,4.2-19.3
		c0.1-0.6,0.3-1.1,0.5-1.7c0.3-0.9,0.9-1.4,1.9-1.4c2.3,0,4.6,0,6.8,0c1.1,0,1.6,0.6,1.5,1.7c-0.2,2.8-1,5.5-1.6,8.3
		c-1.1,5.5-2.4,11.1-3.5,16.6c-0.7,3.7,0.3,4.8,4,5c2.2,0.1,4.4-0.1,6.5-0.8c1.3-0.4,2.1-1.2,2.6-2.4c0-0.1,0.1-0.2,0.1-0.3
		c0-0.1,0.1-0.3,0.1-0.4c0.3-1.3,0.5-2.5,0.8-3.8l-0.4,1.8c1.1-5.2,2.2-10.5,3.3-15.7c0.2-0.9,0.4-1.8,0.6-2.6l1.4-6.7
		c0.6-2.5,1.5-4.9,2.8-7.1c2.8-4.8,7.3-7.1,12.5-8.4c1.3-0.3,2.6-0.6,3.9-0.8c1.2-0.2,2.4-0.3,3.6-0.4v-2.9l12.5,7.2L400,157.7z
		 M361,232.2c-1.9,0-3.6,1.6-3.6,3.8v0c0,2.2,1.6,3.8,3.6,3.8s3.6-1.6,3.6-3.8S363,232.2,361,232.2z M319.7,193.8
		c1.9,0.3,3.7,0,5.5-0.3c1.8-0.4,2.8-1.4,3.2-3.2c0.7-3.7,1.6-7.3,2.4-11c0.5-2.1,0.9-4.3,1.4-6.4c0.4-2,0.1-2.4-1.8-2.9
		c-1.4-0.3-2.8-0.3-4.2-0.2c-3.3,0.1-5.8,1.5-7.6,4.3c-2.5,4-3.4,8.3-3.7,12.9c0,0.5,0,1,0,1.5C315.1,191.6,316.7,193.4,319.7,193.8
		z M286,184.7c-2.9-0.2-5.9-0.4-8.8,0c-3.1,0.4-5.2,2.8-5,5.8c0.1,2.7,1.9,4,5.3,4.1c0.2,0,0.3,0,0.5,0c0,0,0,0,0,0
		c1-0.1,2-0.1,3-0.3c2-0.4,3.8-1.1,4.3-3.5c0.4-1.8,0.9-3.6,1.3-5.4C286.6,185,286.7,184.7,286,184.7z M249.4,169.3
		c-2.5-0.8-7.1-0.7-9.5,2c-1.6,1.7-2.3,3.8-3,6.2c3.6,0,7,0,10.4,0c1.2,0,2.9,0.6,3.4-0.2c0.9-1.3,0.9-3.1,0.7-4.8
		C251.4,171,250.8,169.8,249.4,169.3z M245.7,239.7c-3-0.3-6-0.4-8.9,0c-3.1,0.4-5.2,3-4.9,5.9c0.2,2.7,1.9,3.9,5.4,4h0.4v0
		c1-0.1,2-0.1,3-0.3c1.7-0.4,3.5-0.8,4-2.8c0.6-2.1,1.1-4.1,1.6-6.2C246.3,239.9,246.2,239.7,245.7,239.7z M330.4,170
		c-1.4-0.3-2.8-0.3-4.2-0.2c-3.3,0.1-5.8,1.5-7.6,4.3c-2.5,4-3.4,8.3-3.7,12.9c0,0.5,0,1,0,1.5c0.2,3.2,1.8,5,4.8,5.4
		c1.9,0.3,3.7,0,5.5-0.3c1.8-0.4,2.8-1.4,3.2-3.2c0.7-3.7,1.6-7.3,2.4-11c0.5-2.1,0.9-4.3,1.4-6.4
		C332.6,170.9,332.3,170.4,330.4,170z M245.7,239.7c-3-0.3-6-0.4-8.9,0c-3.1,0.4-5.2,3-4.9,5.9c0.2,2.7,1.9,3.9,5.4,4h0.4v0
		c1-0.1,2-0.1,3-0.3c1.7-0.4,3.5-0.8,4-2.8c0.6-2.1,1.1-4.1,1.6-6.2C246.3,239.9,246.2,239.7,245.7,239.7z M251.5,172.4
		c-0.1-1.4-0.6-2.6-2.1-3.1c-2.5-0.8-7.1-0.7-9.5,2c-1.6,1.7-2.3,3.8-3,6.2c3.6,0,7,0,10.4,0c1.2,0,2.9,0.6,3.4-0.2
		C251.7,176,251.6,174.1,251.5,172.4z M286,184.7c-2.9-0.2-5.9-0.4-8.8,0c-3.1,0.4-5.2,2.8-5,5.8c0.1,2.7,1.9,4,5.3,4.1
		c0.2,0,0.3,0,0.5,0c0,0,0,0,0,0c1-0.1,2-0.1,3-0.3c2-0.4,3.8-1.1,4.3-3.5c0.4-1.8,0.9-3.6,1.3-5.4C286.6,185,286.7,184.7,286,184.7
		z M330.4,170c-1.4-0.3-2.8-0.3-4.2-0.2c-3.3,0.1-5.8,1.5-7.6,4.3c-2.5,4-3.4,8.3-3.7,12.9c0,0.5,0,1,0,1.5c0.2,3.2,1.8,5,4.8,5.4
		c1.9,0.3,3.7,0,5.5-0.3c1.8-0.4,2.8-1.4,3.2-3.2c0.7-3.7,1.6-7.3,2.4-11c0.5-2.1,0.9-4.3,1.4-6.4
		C332.6,170.9,332.3,170.4,330.4,170z M286,184.7c-2.9-0.2-5.9-0.4-8.8,0c-3.1,0.4-5.2,2.8-5,5.8c0.1,2.7,1.9,4,5.3,4.1
		c0.2,0,0.3,0,0.5,0c0,0,0,0,0,0c1-0.1,2-0.1,3-0.3c2-0.4,3.8-1.1,4.3-3.5c0.4-1.8,0.9-3.6,1.3-5.4C286.6,185,286.7,184.7,286,184.7
		z M251.5,172.4c-0.1-1.4-0.6-2.6-2.1-3.1c-2.5-0.8-7.1-0.7-9.5,2c-1.6,1.7-2.3,3.8-3,6.2c3.6,0,7,0,10.4,0c1.2,0,2.9,0.6,3.4-0.2
		C251.7,176,251.6,174.1,251.5,172.4z M245.7,239.7c-3-0.3-6-0.4-8.9,0c-3.1,0.4-5.2,3-4.9,5.9c0.2,2.7,1.9,3.9,5.4,4h0.4v0
		c1-0.1,2-0.1,3-0.3c1.7-0.4,3.5-0.8,4-2.8c0.6-2.1,1.1-4.1,1.6-6.2C246.3,239.9,246.2,239.7,245.7,239.7z M330.4,170
		c-1.4-0.3-2.8-0.3-4.2-0.2c-3.3,0.1-5.8,1.5-7.6,4.3c-2.5,4-3.4,8.3-3.7,12.9c0,0.5,0,1,0,1.5c0.2,3.2,1.8,5,4.8,5.4
		c1.9,0.3,3.7,0,5.5-0.3c1.8-0.4,2.8-1.4,3.2-3.2c0.7-3.7,1.6-7.3,2.4-11c0.5-2.1,0.9-4.3,1.4-6.4
		C332.6,170.9,332.3,170.4,330.4,170z M245.7,239.7c-3-0.3-6-0.4-8.9,0c-3.1,0.4-5.2,3-4.9,5.9c0.2,2.7,1.9,3.9,5.4,4h0.4v0
		c1-0.1,2-0.1,3-0.3c1.7-0.4,3.5-0.8,4-2.8c0.6-2.1,1.1-4.1,1.6-6.2C246.3,239.9,246.2,239.7,245.7,239.7z M251.5,172.4
		c-0.1-1.4-0.6-2.6-2.1-3.1c-2.5-0.8-7.1-0.7-9.5,2c-1.6,1.7-2.3,3.8-3,6.2c3.6,0,7,0,10.4,0c1.2,0,2.9,0.6,3.4-0.2
		C251.7,176,251.6,174.1,251.5,172.4z M286,184.7c-2.9-0.2-5.9-0.4-8.8,0c-3.1,0.4-5.2,2.8-5,5.8c0.1,2.7,1.9,4,5.3,4.1
		c0.2,0,0.3,0,0.5,0c0,0,0,0,0,0c1-0.1,2-0.1,3-0.3c2-0.4,3.8-1.1,4.3-3.5c0.4-1.8,0.9-3.6,1.3-5.4C286.6,185,286.7,184.7,286,184.7
		z M330.4,170c-1.4-0.3-2.8-0.3-4.2-0.2c-3.3,0.1-5.8,1.5-7.6,4.3c-2.5,4-3.4,8.3-3.7,12.9c0,0.5,0,1,0,1.5c0.2,3.2,1.8,5,4.8,5.4
		c1.9,0.3,3.7,0,5.5-0.3c1.8-0.4,2.8-1.4,3.2-3.2c0.7-3.7,1.6-7.3,2.4-11c0.5-2.1,0.9-4.3,1.4-6.4
		C332.6,170.9,332.3,170.4,330.4,170z M286,184.7c-2.9-0.2-5.9-0.4-8.8,0c-3.1,0.4-5.2,2.8-5,5.8c0.1,2.7,1.9,4,5.3,4.1
		c0.2,0,0.3,0,0.5,0c0,0,0,0,0,0c1-0.1,2-0.1,3-0.3c2-0.4,3.8-1.1,4.3-3.5c0.4-1.8,0.9-3.6,1.3-5.4C286.6,185,286.7,184.7,286,184.7
		z M251.5,172.4c-0.1-1.4-0.6-2.6-2.1-3.1c-2.5-0.8-7.1-0.7-9.5,2c-1.6,1.7-2.3,3.8-3,6.2c3.6,0,7,0,10.4,0c1.2,0,2.9,0.6,3.4-0.2
		C251.7,176,251.6,174.1,251.5,172.4z M245.7,239.7c-3-0.3-6-0.4-8.9,0c-3.1,0.4-5.2,3-4.9,5.9c0.2,2.7,1.9,3.9,5.4,4h0.4v0
		c1-0.1,2-0.1,3-0.3c1.7-0.4,3.5-0.8,4-2.8c0.6-2.1,1.1-4.1,1.6-6.2C246.3,239.9,246.2,239.7,245.7,239.7z M245.7,239.7
		c-3-0.3-6-0.4-8.9,0c-3.1,0.4-5.2,3-4.9,5.9c0.2,2.7,1.9,3.9,5.4,4h0.4v0c1-0.1,2-0.1,3-0.3c1.7-0.4,3.5-0.8,4-2.8
		c0.6-2.1,1.1-4.1,1.6-6.2C246.3,239.9,246.2,239.7,245.7,239.7z M251.5,172.4c-0.1-1.4-0.6-2.6-2.1-3.1c-2.5-0.8-7.1-0.7-9.5,2
		c-1.6,1.7-2.3,3.8-3,6.2c3.6,0,7,0,10.4,0c1.2,0,2.9,0.6,3.4-0.2C251.7,176,251.6,174.1,251.5,172.4z M286,184.7
		c-2.9-0.2-5.9-0.4-8.8,0c-3.1,0.4-5.2,2.8-5,5.8c0.1,2.7,1.9,4,5.3,4.1c0.2,0,0.3,0,0.5,0c0,0,0,0,0,0c1-0.1,2-0.1,3-0.3
		c2-0.4,3.8-1.1,4.3-3.5c0.4-1.8,0.9-3.6,1.3-5.4C286.6,185,286.7,184.7,286,184.7z M286,184.7c-2.9-0.2-5.9-0.4-8.8,0
		c-3.1,0.4-5.2,2.8-5,5.8c0.1,2.7,1.9,4,5.3,4.1c0.2,0,0.3,0,0.5,0c0,0,0,0,0,0c1-0.1,2-0.1,3-0.3c2-0.4,3.8-1.1,4.3-3.5
		c0.4-1.8,0.9-3.6,1.3-5.4C286.6,185,286.7,184.7,286,184.7z M251.5,172.4c-0.1-1.4-0.6-2.6-2.1-3.1c-2.5-0.8-7.1-0.7-9.5,2
		c-1.6,1.7-2.3,3.8-3,6.2c3.6,0,7,0,10.4,0c1.2,0,2.9,0.6,3.4-0.2C251.7,176,251.6,174.1,251.5,172.4z M245.7,239.7
		c-3-0.3-6-0.4-8.9,0c-3.1,0.4-5.2,3-4.9,5.9c0.2,2.7,1.9,3.9,5.4,4h0.4v0c1-0.1,2-0.1,3-0.3c1.7-0.4,3.5-0.8,4-2.8
		c0.6-2.1,1.1-4.1,1.6-6.2C246.3,239.9,246.2,239.7,245.7,239.7z M245.7,239.7c-3-0.3-6-0.4-8.9,0c-3.1,0.4-5.2,3-4.9,5.9
		c0.2,2.7,1.9,3.9,5.4,4h0.4v0c1-0.1,2-0.1,3-0.3c1.7-0.4,3.5-0.8,4-2.8c0.6-2.1,1.1-4.1,1.6-6.2
		C246.3,239.9,246.2,239.7,245.7,239.7z M251.5,172.4c-0.1-1.4-0.6-2.6-2.1-3.1c-2.5-0.8-7.1-0.7-9.5,2c-1.6,1.7-2.3,3.8-3,6.2
		c3.6,0,7,0,10.4,0c1.2,0,2.9,0.6,3.4-0.2C251.7,176,251.6,174.1,251.5,172.4z M286,184.7c-2.9-0.2-5.9-0.4-8.8,0
		c-3.1,0.4-5.2,2.8-5,5.8c0.1,2.7,1.9,4,5.3,4.1c0.2,0,0.3,0,0.5,0c0,0,0,0,0,0c1-0.1,2-0.1,3-0.3c2-0.4,3.8-1.1,4.3-3.5
		c0.4-1.8,0.9-3.6,1.3-5.4C286.6,185,286.7,184.7,286,184.7z M286,184.7c-2.9-0.2-5.9-0.4-8.8,0c-3.1,0.4-5.2,2.8-5,5.8
		c0.1,2.7,1.9,4,5.3,4.1c0.2,0,0.3,0,0.5,0c0,0,0,0,0,0c1-0.1,2-0.1,3-0.3c2-0.4,3.8-1.1,4.3-3.5c0.4-1.8,0.9-3.6,1.3-5.4
		C286.6,185,286.7,184.7,286,184.7z M251.5,172.4c-0.1-1.4-0.6-2.6-2.1-3.1c-2.5-0.8-7.1-0.7-9.5,2c-1.6,1.7-2.3,3.8-3,6.2
		c3.6,0,7,0,10.4,0c1.2,0,2.9,0.6,3.4-0.2C251.7,176,251.6,174.1,251.5,172.4z M245.7,239.7c-3-0.3-6-0.4-8.9,0
		c-3.1,0.4-5.2,3-4.9,5.9c0.2,2.7,1.9,3.9,5.4,4h0.4v0c1-0.1,2-0.1,3-0.3c1.7-0.4,3.5-0.8,4-2.8c0.6-2.1,1.1-4.1,1.6-6.2
		C246.3,239.9,246.2,239.7,245.7,239.7z M245.7,239.7c-3-0.3-6-0.4-8.9,0c-3.1,0.4-5.2,3-4.9,5.9c0.2,2.7,1.9,3.9,5.4,4h0.4v0
		c1-0.1,2-0.1,3-0.3c1.7-0.4,3.5-0.8,4-2.8c0.6-2.1,1.1-4.1,1.6-6.2C246.3,239.9,246.2,239.7,245.7,239.7z M251.5,172.4
		c-0.1-1.4-0.6-2.6-2.1-3.1c-2.5-0.8-7.1-0.7-9.5,2c-1.6,1.7-2.3,3.8-3,6.2c3.6,0,7,0,10.4,0c1.2,0,2.9,0.6,3.4-0.2
		C251.7,176,251.6,174.1,251.5,172.4z M251.5,172.4c-0.1-1.4-0.6-2.6-2.1-3.1c-2.5-0.8-7.1-0.7-9.5,2c-1.6,1.7-2.3,3.8-3,6.2
		c3.6,0,7,0,10.4,0c1.2,0,2.9,0.6,3.4-0.2C251.7,176,251.6,174.1,251.5,172.4z M245.7,239.7c-3-0.3-6-0.4-8.9,0
		c-3.1,0.4-5.2,3-4.9,5.9c0.2,2.7,1.9,3.9,5.4,4h0.4v0c1-0.1,2-0.1,3-0.3c1.7-0.4,3.5-0.8,4-2.8c0.6-2.1,1.1-4.1,1.6-6.2
		C246.3,239.9,246.2,239.7,245.7,239.7z"/>
	<g>
		<path class="st0" d="M372.2,186.1c-0.3,1.3-0.5,2.5-0.8,3.8c0,0.1-0.1,0.3-0.1,0.4c0.2-0.8,0.3-1.6,0.5-2.4L372.2,186.1z"/>
		<path class="st0" d="M368.9,200.9c0,0.3-0.1,0.6-0.2,0.8L368.9,200.9z"/>
		<path class="st0" d="M372.2,186.1c-0.3,1.3-0.5,2.5-0.8,3.8c0,0.1-0.1,0.3-0.1,0.4c0,0.1-0.1,0.2-0.1,0.3l0.6-2.7L372.2,186.1z"/>
		<path class="st1" d="M400,146.2c-1.2,0.1-2.4,0.2-3.6,0.4v-0.4H400z"/>
	</g>
</g>
</svg>
