<?xml version="1.0" encoding="utf-8"?>
<!-- Generator: Adobe Illustrator 22.0.1, SVG Export Plug-In . SVG Version: 6.00 Build 0)  -->
<svg version="1.1" id="Layer_1" xmlns="http://www.w3.org/2000/svg" xmlns:xlink="http://www.w3.org/1999/xlink" x="0px" y="0px"
	 viewBox="0 0 600 400" style="enable-background:new 0 0 600 400;" xml:space="preserve">
<style type="text/css">
	.st0{fill:#00323F;}
</style>
<g>
	<path class="st0" d="M151.8,151.9c1.5,1.6,2.5,3.4,3.2,5.3c0.7,1.9,1,4.2,1,6.8c0,6.1-2.3,11.2-6.8,15.1c-4.5,4-10.1,6-16.8,6
		c-3.1,0-6.2-0.5-9.3-1.4c-3.1-1-5.8-2.1-8-3.5l-2.1,3.6h-3.9l-0.7-23.7h4c0.8,2.9,1.8,5.6,2.9,7.9c1.1,2.4,2.5,4.6,4.3,6.6
		c1.7,1.9,3.7,3.4,5.9,4.6c2.3,1.1,4.9,1.7,7.9,1.7c2.2,0,4.2-0.3,5.9-0.9c1.7-0.6,3-1.4,4.1-2.5c1-1.1,1.8-2.3,2.3-3.8
		c0.5-1.5,0.8-3.1,0.8-5c0-2.8-0.8-5.4-2.3-7.7c-1.6-2.4-3.9-4.2-7-5.5c-2.1-0.8-4.5-1.8-7.3-2.8c-2.7-1-5.1-2-7.1-2.9
		c-3.9-1.8-6.9-4.1-9.1-6.9c-2.2-2.8-3.2-6.6-3.2-11.2c0-2.6,0.5-5.1,1.6-7.4c1.1-2.3,2.6-4.3,4.6-6.1c1.9-1.7,4.1-3,6.7-4
		c2.6-1,5.3-1.4,8.1-1.4c3.2,0,6,0.5,8.6,1.5c2.5,1,4.8,2.1,6.9,3.4l2-3.3h3.9l0.4,23h-4c-0.7-2.6-1.5-5.2-2.4-7.6
		c-0.9-2.4-2.1-4.6-3.5-6.5c-1.4-1.9-3.1-3.4-5.1-4.5c-2-1.1-4.5-1.7-7.4-1.7c-3.1,0-5.7,1-7.9,3c-2.2,2-3.3,4.4-3.3,7.3
		c0,3,0.7,5.5,2.1,7.4c1.4,2,3.4,3.6,6.1,4.9c2.4,1.1,4.7,2.1,7,3c2.3,0.8,4.5,1.7,6.7,2.7c2,0.8,3.8,1.8,5.6,2.9
		C148.9,149.2,150.5,150.5,151.8,151.9z"/>
	<path class="st0" d="M184.2,183.7h-23.5v-3.2c0.7-0.1,1.5-0.1,2.4-0.2c0.8-0.1,1.5-0.2,2.1-0.4c0.9-0.3,1.6-0.8,2.1-1.5
		c0.5-0.7,0.7-1.7,0.7-2.9v-55.8c0-1.2-0.3-2.3-0.8-3.3c-0.5-1-1.2-1.8-2-2.4c-0.6-0.4-1.7-0.7-3.2-1.1c-1.6-0.3-2.8-0.5-3.8-0.6
		v-3.1l18.1-1.1l0.7,0.7v66.1c0,1.1,0.2,2.1,0.6,2.8c0.4,0.7,1.1,1.3,2.1,1.7c0.7,0.3,1.4,0.6,2.1,0.7c0.7,0.2,1.5,0.3,2.4,0.3
		V183.7z"/>
	<path class="st0" d="M234,182.8c-1.5,0.6-2.9,1-4,1.3c-1.2,0.3-2.5,0.5-3.9,0.5c-2.5,0-4.6-0.6-6.1-1.8c-1.5-1.2-2.5-2.9-2.9-5.2
		h-0.3c-2.1,2.3-4.4,4.1-6.8,5.4c-2.4,1.2-5.3,1.9-8.8,1.9c-3.6,0-6.6-1.1-8.9-3.3c-2.3-2.2-3.5-5.1-3.5-8.7c0-1.9,0.3-3.5,0.8-5
		c0.5-1.5,1.3-2.8,2.3-4c0.8-1,1.9-1.8,3.2-2.6c1.3-0.8,2.6-1.4,3.8-1.8c1.5-0.6,4.4-1.6,8.9-3.1c4.5-1.5,7.5-2.7,9.1-3.5v-4.8
		c0-0.4-0.1-1.2-0.3-2.4c-0.2-1.2-0.6-2.3-1.1-3.4c-0.7-1.2-1.6-2.3-2.8-3.2c-1.2-0.9-2.9-1.3-5.1-1.3c-1.5,0-2.9,0.3-4.2,0.8
		c-1.3,0.5-2.2,1-2.7,1.6c0,0.7,0.2,1.6,0.5,2.9c0.3,1.3,0.5,2.4,0.5,3.5c0,1.1-0.5,2.2-1.5,3.1c-1,0.9-2.4,1.4-4.3,1.4
		c-1.6,0-2.8-0.6-3.6-1.7c-0.8-1.2-1.1-2.4-1.1-3.9c0-1.5,0.5-2.9,1.6-4.3c1.1-1.4,2.4-2.6,4.1-3.7c1.5-0.9,3.2-1.7,5.3-2.3
		c2.1-0.6,4.1-1,6.1-1c2.7,0,5.1,0.2,7.2,0.6c2,0.4,3.9,1.2,5.5,2.4c1.7,1.2,2.9,2.8,3.8,4.9c0.9,2.1,1.3,4.7,1.3,8
		c0,4.7,0,8.8-0.1,12.4c-0.1,3.6-0.1,7.5-0.1,11.8c0,1.3,0.2,2.3,0.7,3c0.4,0.7,1.1,1.4,2,1.9c0.5,0.3,1.3,0.5,2.3,0.5
		c1.1,0,2.1,0,3.2,0V182.8z M216.9,157.1c-2.8,0.8-5.2,1.6-7.3,2.4c-2.1,0.8-4,1.8-5.8,2.9c-1.6,1.1-2.9,2.4-3.9,3.9
		c-0.9,1.5-1.4,3.3-1.4,5.4c0,2.7,0.7,4.7,2.1,6c1.4,1.3,3.2,1.9,5.4,1.9c2.3,0,4.3-0.6,6.1-1.7c1.8-1.1,3.2-2.5,4.4-4L216.9,157.1z
		"/>
	<path class="st0" d="M266.6,181.6c-2.1,0.9-4.1,1.6-6,2.2c-1.9,0.6-4.2,0.9-6.9,0.9c-4,0-6.9-1-8.5-3.1c-1.6-2-2.5-4.9-2.5-8.6
		v-32.6H234v-4.7h8.9v-15h8.9v15h13.8v4.7h-13.7v26.9c0,2,0.1,3.7,0.2,5.1c0.1,1.4,0.5,2.5,1,3.5c0.5,0.9,1.3,1.7,2.3,2.1
		c1,0.5,2.4,0.7,4.2,0.7c0.8,0,2-0.1,3.6-0.2c1.6-0.1,2.7-0.3,3.3-0.6V181.6z"/>
	<path class="st0" d="M312.3,172.4c-2,3.8-4.7,6.9-8.1,9.2c-3.4,2.3-7.3,3.4-11.7,3.4c-3.9,0-7.3-0.7-10.2-2.1
		c-2.9-1.4-5.3-3.2-7.2-5.6c-1.9-2.3-3.3-5.1-4.2-8.2c-0.9-3.1-1.4-6.4-1.4-9.9c0-3.1,0.5-6.2,1.5-9.2c1-3,2.4-5.7,4.4-8.1
		c1.9-2.3,4.2-4.2,6.9-5.6c2.8-1.4,5.8-2.1,9.3-2.1c3.5,0,6.5,0.6,9,1.7c2.5,1.1,4.5,2.6,6.1,4.5c1.5,1.8,2.6,4,3.3,6.4
		c0.7,2.5,1.1,5.2,1.1,8.1v3.2h-31.9c0,3.2,0.3,6,0.9,8.6c0.6,2.6,1.6,4.8,2.9,6.8c1.3,1.9,2.9,3.4,5,4.5c2.1,1.1,4.5,1.6,7.3,1.6
		c2.9,0,5.4-0.7,7.5-2c2.1-1.4,4.1-3.8,6.1-7.3L312.3,172.4z M301.5,154c0-1.8-0.2-3.8-0.5-5.8c-0.3-2.1-0.8-3.8-1.5-5.2
		c-0.7-1.5-1.8-2.7-3.1-3.7c-1.3-0.9-3-1.4-5-1.4c-3.4,0-6.3,1.4-8.5,4.3c-2.3,2.8-3.5,6.8-3.7,11.9H301.5z"/>
	<path class="st0" d="M352.8,141.8c0,1.7-0.4,3.1-1.2,4.4c-0.8,1.3-2.1,1.9-3.8,1.9c-1.8,0-3.2-0.5-4.2-1.4c-1-0.9-1.4-2-1.4-3.1
		c0-0.7,0.1-1.4,0.2-2c0.1-0.6,0.2-1.2,0.3-1.8c-1.5,0-3.3,0.6-5.4,1.9c-2.1,1.2-3.8,3-5.2,5.3v28c0,1.1,0.2,2.1,0.7,2.8
		c0.4,0.7,1.1,1.3,2.1,1.6c0.8,0.3,1.9,0.6,3.1,0.7c1.3,0.2,2.4,0.3,3.3,0.3v3.2h-25.4v-3.2c0.7-0.1,1.5-0.1,2.3-0.2
		c0.8-0.1,1.5-0.2,2.1-0.4c0.9-0.3,1.6-0.8,2-1.5c0.4-0.7,0.7-1.7,0.7-2.9v-29.7c0-1-0.2-2-0.7-3c-0.5-1-1.1-1.8-2-2.3
		c-0.6-0.4-1.4-0.7-2.2-0.9c-0.8-0.2-1.8-0.3-2.7-0.4v-3.2l16-1.1l0.7,0.7v6.8h0.2c2-2.6,4.3-4.6,6.7-6c2.5-1.4,4.7-2.1,6.8-2.1
		c2.1,0,3.7,0.7,5,2C352.1,137.7,352.8,139.5,352.8,141.8z"/>
	<path class="st0" d="M422.5,143.3c-1.9,0.2-3.9,0.5-5.8,1.1c-2,0.6-3.5,1.6-4.5,2.9c-0.7,0.8-1.4,1.9-2.1,3.5
		c-0.7,1.5-1.5,3.3-2.5,5.4c-1,2.1-2,4.1-3,6.2c-1,2-2.3,4-3.9,6.1c1.3,1.6,2.9,3.3,4.8,5.1c1.9,1.8,3.5,3.2,4.8,4
		c1.3,0.7,3.1,1.4,5.5,1.9c2.4,0.5,4.3,0.8,5.9,0.9v3.5h-20.1l-7.3-8.3c-1.1,1.2-2.3,2.4-3.7,3.6c-1.4,1.3-2.8,2.3-4.4,3.2
		c-1.7,1-3.4,1.7-5.1,2.3c-1.7,0.6-3.7,0.8-6,0.8c-2.4,0-4.8-0.4-7.2-1c-2.4-0.7-4.5-1.8-6.5-3.3c-1.9-1.5-3.4-3.4-4.6-5.8
		s-1.8-5.1-1.8-8.4c0-4,1.1-7.7,3.2-11c2.1-3.3,6.1-6.7,11.9-10.4c-2.6-3.5-4.7-6.5-6.2-9c-1.5-2.5-2.2-5.4-2.2-8.5
		c0-2.2,0.4-4.3,1.3-6.2c0.9-1.9,2.2-3.5,3.8-4.9c1.5-1.3,3.3-2.3,5.5-3c2.1-0.7,4.3-1.1,6.5-1.1c2.6,0,4.9,0.4,6.9,1.2
		c2,0.8,3.6,1.9,4.8,3.2c1.1,1.2,2,2.7,2.6,4.3c0.6,1.6,0.9,3.3,0.9,4.9c0,3.9-1.2,7.3-3.6,10.1c-2.4,2.8-5.8,5.3-10,7.6
		c3.1,4.1,6,7.9,9,11.3c2.9,3.4,5.7,6.7,8.4,10c2.2-3.5,3.9-6.8,5.1-9.8c1.2-3.1,1.8-5.8,1.8-8.1c0-1-0.8-1.9-2.3-2.5
		c-1.5-0.6-3.6-1.2-6.3-1.7v-3.5h26.1V143.3z M391.8,172.6c-3-3.8-6.4-8-10.2-12.6c-3.8-4.6-6.8-8.4-9.1-11.6
		c-2.6,1.8-4.5,4-5.6,6.4c-1.1,2.5-1.6,5.3-1.6,8.4c0,4.4,1.3,8.1,3.8,11c2.5,2.9,5.9,4.4,10.1,4.4c2.4,0,4.7-0.5,7-1.5
		C388.4,176,390.3,174.5,391.8,172.6z M387.9,127.4c0-3.3-0.7-5.9-2.2-7.6c-1.5-1.8-3.5-2.7-6.2-2.7c-1.5,0-2.8,0.3-3.8,0.9
		c-1,0.6-1.9,1.4-2.6,2.3c-0.6,0.9-1.1,1.9-1.4,2.9c-0.3,1-0.4,2-0.4,2.8c0,2.2,0.6,4.5,1.8,6.8c1.2,2.3,3,5.1,5.5,8.3
		c3.3-1.9,5.7-3.9,7.2-6.1C387.2,132.9,387.9,130.3,387.9,127.4z"/>
	<g>
		<path class="st0" d="M157.8,237.9c2,1.4,3.7,3.2,5,5.4c1.3,2.2,2,4.9,2,8.1c0,3.2-0.7,6-2.1,8.4c-1.4,2.4-3.2,4.3-5.5,5.9
			c-2.2,1.5-4.6,2.6-7.4,3.4c-2.8,0.8-5.6,1.2-8.5,1.2h-32.8v-3.5c0.8-0.1,1.9-0.2,3.4-0.4c1.5-0.2,2.6-0.5,3.2-0.8
			c1-0.5,1.7-1.1,2.1-1.8c0.4-0.8,0.6-1.8,0.6-3V211c0-1.1-0.2-2.1-0.6-2.9c-0.4-0.8-1.1-1.5-2.2-2.1c-1-0.5-2.1-0.9-3.3-1.1
			c-1.2-0.3-2.2-0.4-3-0.5v-3.5h32c2.5,0,4.8,0.2,7.1,0.7c2.3,0.5,4.4,1.4,6.5,2.6c1.9,1.1,3.5,2.7,4.7,4.6c1.2,2,1.9,4.3,1.9,7.1
			c0,2.4-0.4,4.6-1.3,6.5c-0.9,1.9-2.1,3.5-3.7,4.9c-1.5,1.3-3.2,2.4-5.2,3.3c-1.9,0.9-4,1.6-6.3,2.1v0.4c2,0.2,4.2,0.7,6.7,1.5
			C153.7,235.5,155.9,236.6,157.8,237.9z M146,227.5c1.2-1.4,2-2.9,2.5-4.6c0.5-1.7,0.7-3.6,0.7-5.9c0-3.8-1-6.8-3.1-9
			c-2.1-2.2-5.4-3.3-9.8-3.3c-1,0-2.3,0-3.9,0.1c-1.6,0.1-2.9,0.1-4,0.1v26.7h6.2c2.7,0,4.9-0.3,6.8-1
			C143.3,229.9,144.8,228.8,146,227.5z M152.8,249.6c0-4.1-1.4-7.5-4.1-10.1c-2.8-2.6-6.7-4-11.8-4c-2.1,0-3.8,0-5.3,0.1
			c-1.4,0-2.5,0.1-3.2,0.1v24.4c0,2.1,0.8,3.6,2.5,4.6c1.7,1,4,1.6,6.9,1.6c4.8,0,8.6-1.4,11.1-4.2
			C151.5,259.3,152.8,255.1,152.8,249.6z"/>
		<path class="st0" d="M207.8,228.3c0,1.7-0.4,3.1-1.2,4.4c-0.8,1.3-2.1,1.9-3.8,1.9c-1.8,0-3.2-0.5-4.2-1.4c-1-0.9-1.4-2-1.4-3.1
			c0-0.7,0.1-1.4,0.2-2c0.1-0.6,0.2-1.2,0.3-1.8c-1.5,0-3.3,0.6-5.4,1.9c-2.1,1.2-3.8,3-5.2,5.3v28c0,1.1,0.2,2.1,0.7,2.8
			c0.4,0.7,1.1,1.3,2.1,1.6c0.8,0.3,1.9,0.6,3.1,0.7c1.3,0.2,2.4,0.3,3.3,0.3v3.2h-25.4V267c0.7-0.1,1.5-0.1,2.3-0.2
			c0.8-0.1,1.5-0.2,2.1-0.4c0.9-0.3,1.6-0.8,2-1.5c0.4-0.7,0.7-1.7,0.7-2.9v-29.7c0-1-0.2-2-0.7-3c-0.5-1-1.1-1.8-2-2.3
			c-0.6-0.4-1.4-0.7-2.2-0.9c-0.8-0.2-1.8-0.3-2.7-0.4v-3.2l16-1.1l0.7,0.7v6.8h0.2c2-2.6,4.3-4.6,6.7-6c2.5-1.4,4.7-2.1,6.8-2.1
			c2.1,0,3.7,0.7,5,2C207.1,224.2,207.8,226,207.8,228.3z"/>
		<path class="st0" d="M255.6,269.3c-1.5,0.6-2.9,1-4,1.3c-1.2,0.3-2.5,0.5-3.9,0.5c-2.5,0-4.6-0.6-6.1-1.8
			c-1.5-1.2-2.5-2.9-2.9-5.2h-0.3c-2.1,2.3-4.4,4.1-6.8,5.4c-2.4,1.2-5.3,1.9-8.8,1.9c-3.6,0-6.6-1.1-8.9-3.3
			c-2.3-2.2-3.5-5.1-3.5-8.7c0-1.9,0.3-3.5,0.8-5c0.5-1.5,1.3-2.8,2.3-4c0.8-1,1.9-1.8,3.2-2.6c1.3-0.8,2.6-1.4,3.8-1.8
			c1.5-0.6,4.4-1.6,8.9-3.1c4.5-1.5,7.5-2.7,9.1-3.5v-4.8c0-0.4-0.1-1.2-0.3-2.4c-0.2-1.2-0.6-2.3-1.1-3.4c-0.7-1.2-1.6-2.3-2.8-3.2
			c-1.2-0.9-2.9-1.3-5.1-1.3c-1.5,0-2.9,0.3-4.2,0.8c-1.3,0.5-2.2,1-2.7,1.6c0,0.7,0.2,1.6,0.5,2.9c0.3,1.3,0.5,2.4,0.5,3.5
			c0,1.1-0.5,2.2-1.5,3.1c-1,0.9-2.4,1.4-4.3,1.4c-1.6,0-2.8-0.6-3.6-1.7c-0.8-1.2-1.1-2.4-1.1-3.9c0-1.5,0.5-2.9,1.6-4.3
			c1.1-1.4,2.4-2.6,4.1-3.7c1.5-0.9,3.2-1.7,5.3-2.3c2.1-0.6,4.1-1,6.1-1c2.7,0,5.1,0.2,7.2,0.6c2,0.4,3.9,1.2,5.5,2.4
			c1.7,1.2,2.9,2.8,3.8,4.9c0.9,2.1,1.3,4.7,1.3,8c0,4.7,0,8.8-0.1,12.4c-0.1,3.6-0.1,7.5-0.1,11.8c0,1.3,0.2,2.3,0.7,3
			c0.4,0.7,1.1,1.4,2,1.9c0.5,0.3,1.3,0.5,2.3,0.5c1.1,0,2.1,0,3.2,0V269.3z M238.5,243.5c-2.8,0.8-5.2,1.6-7.3,2.4
			c-2.1,0.8-4,1.8-5.8,2.9c-1.6,1.1-2.9,2.4-3.9,3.9c-0.9,1.5-1.4,3.3-1.4,5.4c0,2.7,0.7,4.7,2.1,6c1.4,1.3,3.2,1.9,5.4,1.9
			c2.3,0,4.3-0.6,6.1-1.7c1.8-1.1,3.2-2.5,4.4-4L238.5,243.5z"/>
		<path class="st0" d="M311.6,270.2h-23.5V267c0.7-0.1,1.6-0.1,2.5-0.2c0.9-0.1,1.6-0.2,2.2-0.4c0.9-0.3,1.6-0.8,2-1.5
			c0.4-0.7,0.7-1.7,0.7-2.9v-24.8c0-3.4-0.8-6.1-2.4-7.9c-1.6-1.9-3.6-2.8-5.9-2.8c-1.7,0-3.3,0.3-4.7,0.8c-1.4,0.5-2.7,1.2-3.8,2
			c-1.1,0.7-1.9,1.6-2.6,2.4c-0.6,0.9-1.1,1.6-1.4,2.1v27.7c0,1.1,0.2,2,0.7,2.7c0.5,0.7,1.1,1.3,2.1,1.7c0.7,0.3,1.4,0.6,2.2,0.7
			c0.8,0.2,1.6,0.3,2.5,0.3v3.2h-23.6V267c0.7-0.1,1.5-0.1,2.3-0.2c0.8-0.1,1.5-0.2,2.1-0.4c0.9-0.3,1.6-0.8,2-1.5
			c0.4-0.7,0.7-1.7,0.7-2.9v-29.7c0-1.1-0.2-2.1-0.7-3c-0.5-0.9-1.1-1.7-2-2.3c-0.6-0.4-1.4-0.7-2.2-0.9c-0.8-0.2-1.8-0.3-2.7-0.4
			v-3.2l16-1.1l0.7,0.7v6.8h0.2c0.8-0.8,1.8-1.7,2.9-2.8c1.2-1.1,2.3-2,3.3-2.7c1.2-0.8,2.6-1.4,4.3-2c1.7-0.5,3.5-0.8,5.6-0.8
			c4.6,0,8,1.4,10.3,4.3c2.2,2.9,3.3,6.7,3.3,11.5v25c0,1.1,0.2,2.1,0.6,2.8c0.4,0.7,1.1,1.2,2,1.6c0.8,0.3,1.5,0.6,2,0.7
			c0.6,0.1,1.4,0.2,2.4,0.3V270.2z"/>
		<path class="st0" d="M368.4,269.3l-16.8,1.1l-0.7-0.7v-4.5l-0.4-0.1c-1.7,1.9-3.8,3.4-6.3,4.6c-2.5,1.2-5,1.8-7.7,1.8
			c-2.7,0-5.4-0.6-7.9-1.8c-2.6-1.2-4.8-2.9-6.7-5.2c-1.9-2.2-3.4-4.9-4.6-8.1c-1.1-3.2-1.7-6.6-1.7-10.4c0-3.5,0.6-6.8,1.8-9.9
			c1.2-3.1,2.9-5.9,5-8.2c2-2.2,4.4-3.9,7.3-5.2c2.9-1.3,5.8-2,8.8-2c2.2,0,4.4,0.3,6.6,0.9c2.2,0.6,4,1.3,5.6,2.2V207
			c0-1.4-0.2-2.6-0.7-3.7c-0.5-1.1-1.1-2-1.9-2.6c-0.9-0.6-2.1-1.1-3.7-1.3c-1.5-0.3-3.2-0.5-5-0.6v-3l19.7-1.1l0.7,0.7v64.9
			c0,1.1,0.2,2.1,0.7,2.9c0.4,0.8,1.1,1.5,1.9,2c0.6,0.4,1.5,0.6,2.7,0.7c1.2,0.1,2.2,0.2,3.2,0.2V269.3z M350.7,260.9v-28.2
			c-0.3-0.8-0.7-1.8-1.3-2.7c-0.6-1-1.3-1.9-2.2-2.7c-0.9-0.8-2-1.5-3.3-2c-1.3-0.5-2.7-0.8-4.4-0.8c-2,0-3.7,0.5-5.4,1.5
			c-1.6,1-3.1,2.5-4.4,4.3c-1.2,1.8-2.2,4.1-2.9,7c-0.7,2.8-1,5.9-1,9.3c0,2.7,0.3,5.2,0.8,7.4c0.5,2.2,1.4,4.3,2.6,6.2
			c1.1,1.8,2.6,3.3,4.4,4.4c1.8,1.1,3.9,1.7,6.3,1.7c2.6,0,4.8-0.6,6.5-1.7C348.1,263.5,349.5,262.2,350.7,260.9z"/>
		<path class="st0" d="M393.7,270.2h-23.5V267c0.7-0.1,1.5-0.1,2.4-0.2c0.8-0.1,1.5-0.2,2.1-0.4c0.9-0.3,1.6-0.8,2.1-1.5
			c0.5-0.7,0.7-1.7,0.7-2.9v-55.8c0-1.2-0.3-2.3-0.8-3.3c-0.5-1-1.2-1.8-2-2.4c-0.6-0.4-1.7-0.7-3.2-1.1c-1.6-0.3-2.8-0.5-3.8-0.6
			v-3.1l18.1-1.1l0.7,0.7v66.1c0,1.1,0.2,2.1,0.6,2.8c0.4,0.7,1.1,1.3,2.1,1.7c0.7,0.3,1.4,0.6,2.1,0.7c0.7,0.2,1.5,0.3,2.4,0.3
			V270.2z"/>
		<path class="st0" d="M440.6,258.9c-2,3.8-4.7,6.9-8.1,9.2c-3.4,2.3-7.3,3.4-11.7,3.4c-3.9,0-7.3-0.7-10.2-2.1
			c-2.9-1.4-5.3-3.2-7.2-5.6c-1.9-2.3-3.3-5.1-4.2-8.2c-0.9-3.1-1.4-6.4-1.4-9.9c0-3.1,0.5-6.2,1.5-9.2c1-3,2.4-5.7,4.4-8.1
			c1.9-2.3,4.2-4.2,6.9-5.6c2.8-1.4,5.8-2.1,9.3-2.1c3.5,0,6.5,0.6,9,1.7c2.5,1.1,4.5,2.6,6.1,4.5c1.5,1.8,2.6,4,3.3,6.4
			c0.7,2.5,1.1,5.2,1.1,8.1v3.2h-31.9c0,3.2,0.3,6,0.9,8.6c0.6,2.6,1.6,4.8,2.9,6.8c1.3,1.9,2.9,3.4,5,4.5c2.1,1.1,4.5,1.6,7.3,1.6
			c2.9,0,5.4-0.7,7.5-2c2.1-1.4,4.1-3.8,6.1-7.3L440.6,258.9z M429.8,240.5c0-1.8-0.2-3.8-0.5-5.8c-0.3-2.1-0.8-3.8-1.5-5.2
			c-0.7-1.5-1.8-2.7-3.1-3.7c-1.3-0.9-3-1.4-5-1.4c-3.4,0-6.3,1.4-8.5,4.3c-2.3,2.8-3.5,6.8-3.7,11.9H429.8z"/>
		<path class="st0" d="M440.6,285.9c0-1.6,0.4-3,1.3-4c0.9-1,2-1.5,3.3-1.5c1,0,1.9,0.2,2.7,0.6c0.7,0.4,1.4,0.9,2,1.5
			c0.5,0.5,1,1.1,1.6,2c0.6,0.8,1,1.5,1.3,2.1c1.6-0.9,3.6-3.2,5.8-6.9c2.3-3.7,3.9-7,4.9-9.7c-3.1-7.7-5.9-14.6-8.4-20.7
			c-2.5-6.1-5.1-12.4-7.9-18.9c-0.6-1.5-1.7-2.7-3.1-3.5c-1.5-0.8-2.9-1.4-4.4-1.6v-3.2h22v3.4c-1,0-2.1,0.2-3.5,0.6
			c-1.4,0.4-2.1,0.8-2.1,1.3c0,0.2,0.1,0.5,0.2,1c0.1,0.5,0.3,0.9,0.5,1.4c1.2,3.2,3.1,7.9,5.6,13.9c2.5,6.1,4.5,10.9,5.9,14.6
			c1.5-3.5,3-7.1,4.6-10.8c1.6-3.7,3.3-8.1,5.3-13.2c0.2-0.6,0.6-1.5,1-2.6c0.4-1.1,0.6-2,0.6-2.8c0-0.8-0.7-1.6-2.2-2.4
			c-1.5-0.7-2.9-1.2-4.2-1.3v-3.1h17.9v3c-1,0.2-2.3,0.7-3.9,1.7c-1.6,1-2.8,2.3-3.6,4.1c-3.9,9-7.3,17.2-10.3,24.6
			c-3,7.4-5.3,12.8-6.9,16.3c-2.1,4.6-3.9,8.1-5.5,10.7c-1.6,2.6-3.2,4.6-4.7,6c-1.5,1.4-2.9,2.3-4.1,2.8c-1.2,0.5-2.5,0.7-3.8,0.7
			c-2.5,0-4.5-0.6-6-1.8C441.4,288.9,440.6,287.5,440.6,285.9z"/>
	</g>
</g>
</svg>
