<?xml version="1.0" encoding="utf-8"?>
<!-- Generator: Adobe Illustrator 22.0.1, SVG Export Plug-In . SVG Version: 6.00 Build 0)  -->
<svg version="1.1" id="Layer_1" xmlns="http://www.w3.org/2000/svg" xmlns:xlink="http://www.w3.org/1999/xlink" x="0px" y="0px"
	 viewBox="0 0 600 400" style="enable-background:new 0 0 600 400;" xml:space="preserve">
<style type="text/css">
	.st0{opacity:0.8;fill:#00323F;}
	.st1{opacity:0.6;fill:#00323F;}
	.st2{fill:#00323F;}
	.st3{font-family:'MinionPro-MediumIt';}
	.st4{font-size:27.7379px;}
</style>
<g>
	<g>
		<path class="st0" d="M252.2,119l16.4,9.5l26.6-15.3l-43-24.8c-0.7-0.4-1.4-0.4-1.9,0c-0.6,0.4-0.9,1.1-0.9,2.1v23.3
			c0,0.9,0.3,2,0.9,3.1C250.8,117.9,251.5,118.6,252.2,119z"/>
		<path class="st1" d="M292.4,178l-16.4-9.5l-26.6,15.3l43,24.8c0.7,0.4,1.4,0.4,1.9,0c0.6-0.4,0.9-1.1,0.9-2.1v-23.3
			c0-0.9-0.3-2-0.9-3.1C293.8,179.2,293.1,178.4,292.4,178z"/>
		<path class="st2" d="M349.1,119l-96.9,56c-0.7,0.4-1.4,0.4-1.9,0c-0.6-0.4-0.9-1.1-0.9-2.1v-23.3c0-1,0.3-2,0.9-3.1
			c0.6-1.1,1.2-1.8,1.9-2.3l96.9-56c0.7-0.4,1.4-0.4,1.9,0c0.6,0.4,0.9,1.1,0.9,2.1v23.3c0,0.9-0.3,2-0.9,3.1
			C350.5,117.9,349.8,118.6,349.1,119z"/>
	</g>
	<g>
		<path class="st2" d="M154.1,257.9c-0.6,3.2-1.9,10.4-2.7,13.1h-38.4l-0.7-1.2c9.7-14.3,19.4-29,28.9-43.4h-10.5
			c-7.6,0-8.9,0.8-10.2,2.6c-0.9,1.3-1.9,3.4-2.7,6.7l-2.3-0.1c0.3-5.3,0.7-10.5,0.9-14.1h1.8c1,1.8,1.8,1.8,4.1,1.8h29.6l0.5,1.1
			c-9.5,14.3-18.9,28.3-28.4,43c2.4,0.3,5.3,0.4,10.1,0.4c7,0,11.3-0.5,13.3-2.6c1.7-1.6,2.9-4,4.4-8.1L154.1,257.9z"/>
		<path class="st2" d="M198,271v-2.3c5.6-0.5,6.3-1,6.3-7.2v-28.5c0-6.2-0.7-6.7-6.3-7.2v-2.3h21v2.3c-5.6,0.5-6.2,1-6.2,7.2v28.5
			c0,6.2,0.6,6.7,6.2,7.2v2.3H198z"/>
		<path class="st2" d="M313.1,225.8c-4.8,0.5-6,1.3-8.9,8.2c-2.2,5.3-9.3,22.7-14.9,37.8h-3.1c-5-13.4-11.5-30.4-15-39.1
			c-2.2-5.6-3.4-6.4-7.8-6.9v-2.4h20.4v2.4c-5.3,0.7-5.3,1.4-4.2,4.6c2,5.6,7.6,20.2,11.1,29.1h0.2c3.9-10.1,7.9-20.6,10-27.4
			c1.5-4.8,1.4-5.6-4.6-6.4v-2.4h16.9V225.8z"/>
		<path class="st2" d="M395.4,259.1c-0.4,3-1.9,9.7-2.6,11.9h-36.6v-2.3c6.4-0.5,7-1,7-7.2V233c0-6.4-0.7-6.8-6.1-7.2v-2.3H391
			c0.1,1.5,0.4,6.5,0.7,10.8l-2.5,0.4c-0.7-2.8-1.5-4.9-2.7-6.3c-1.2-1.5-3.1-2-7.7-2h-4.3c-2.6,0-2.8,0.1-2.8,2.5v16h5.6
			c6.4,0,7.2-0.4,8.1-5.6h2.4v14.5h-2.4c-1-5.2-1.8-5.6-8.1-5.6h-5.7v13c0,3.5,0.4,5.3,1.8,6c1.4,0.7,4,0.8,7,0.8
			c4.5,0,6.8-0.5,8.5-2.4c1.4-1.5,2.7-4,4-7L395.4,259.1z"/>
		<path class="st2" d="M473.5,271c-4-5.1-10.1-13.1-15.7-20.8c-1.6-2.1-2.6-2.5-3.7-2.3v13.5c0,6.3,0.7,6.8,6.4,7.3v2.3h-20.9v-2.3
			c5.4-0.5,6.1-1,6.1-7.3v-28.3c0-6.4-0.7-6.8-6.3-7.3v-2.3H460v2.3c-5.4,0.5-6,1-6,7.3v12.6c1.5-0.4,3.2-1.5,5.4-3.7
			c4.6-4.5,8.3-8.7,11-12.3c1.9-2.3,1.8-3.3-1.6-3.7l-1.5-0.2v-2.3h18.5v2.3c-4.9,0.5-7.5,1.3-11.7,5.3c-3.7,3.5-7.6,7.5-11.5,11.6
			c5,7,11.3,15,16,20.6c3.4,4,5.1,5,8.3,5.4v2.3H473.5z"/>
	</g>
	<text transform="matrix(1 0 0 1 192.9297 301.9668)" class="st2 st3 st4">for Dentist &amp; Ortho</text>
	<rect x="112.2" y="294.9" class="st2" width="72.1" height="1.4"/>
	<rect x="415.7" y="294.9" class="st2" width="72.1" height="1.4"/>
</g>
</svg>
